<svg id="svg" version="1.1" xmlns="http://www.w3.org/2000/svg" xmlns:xlink="http://www.w3.org/1999/xlink" width="400" height="400" viewBox="0, 0, 400,400"><g id="svgg"><path id="path0" d="M0.000 200.000 L 0.000 400.000 200.000 400.000 L 400.000 400.000 400.000 200.000 L 400.000 0.000 200.000 0.000 L 0.000 0.000 0.000 200.000 M231.986 151.974 C 232.221 152.414,232.400 155.483,232.400 159.092 L 232.400 165.436 240.500 172.469 C 244.955 176.337,249.185 179.990,249.900 180.587 C 251.438 181.869,251.768 184.000,250.429 184.000 C 250.001 184.000,245.866 180.690,241.129 176.557 L 232.600 169.113 232.392 192.457 C 232.277 205.295,232.142 215.826,232.092 215.857 C 229.556 217.435,229.600 217.877,229.600 190.996 L 229.600 166.491 223.813 161.445 C 220.630 158.670,217.855 156.400,217.645 156.400 C 217.436 156.400,210.020 162.610,201.165 170.200 C 185.208 183.878,183.914 184.819,183.376 183.125 C 183.057 182.121,183.560 181.613,191.604 174.802 C 193.032 173.594,194.290 172.513,194.400 172.400 C 194.510 172.287,195.770 171.207,197.200 170.000 C 198.630 168.793,199.890 167.713,200.000 167.600 C 200.110 167.487,201.370 166.407,202.800 165.200 C 204.230 163.993,205.490 162.913,205.600 162.800 C 205.710 162.687,206.970 161.607,208.400 160.400 C 209.830 159.193,211.090 158.108,211.200 157.989 C 212.511 156.576,217.023 153.200,217.602 153.200 C 218.018 153.200,220.753 155.269,223.679 157.798 C 226.606 160.326,229.135 162.396,229.300 162.398 C 229.465 162.399,229.600 160.096,229.600 157.280 C 229.600 152.189,229.838 151.200,231.066 151.200 C 231.344 151.200,231.758 151.548,231.986 151.974 M218.386 167.974 C 218.895 168.925,218.956 226.735,218.449 227.535 C 218.262 227.829,217.680 228.009,217.155 227.935 L 216.200 227.800 216.097 198.044 C 216.023 176.394,216.118 168.140,216.446 167.744 C 217.086 166.973,217.902 167.070,218.386 167.974 M205.348 176.900 C 205.841 178.739,205.628 211.012,205.120 211.520 C 204.442 212.198,203.330 212.116,203.043 211.367 C 202.726 210.541,202.726 177.459,203.043 176.633 C 203.421 175.648,205.063 175.839,205.348 176.900 M191.910 194.270 C 192.025 200.570,191.699 201.650,190.004 200.602 C 189.545 200.319,189.432 188.701,189.884 188.250 C 191.350 186.783,191.798 188.114,191.910 194.270 M245.586 188.774 C 247.055 191.519,245.829 201.056,244.051 200.715 C 243.406 200.591,242.818 189.972,243.376 188.518 C 243.678 187.732,245.118 187.899,245.586 188.774 M102.775 215.593 C 104.240 216.013,104.784 216.581,104.794 217.700 C 104.801 218.535,104.261 218.604,103.520 217.863 C 102.037 216.380,99.920 216.190,99.419 217.496 C 99.090 218.352,99.995 219.597,102.124 221.220 C 105.207 223.571,105.956 225.731,104.382 227.732 C 102.267 230.421,96.800 229.549,96.800 226.524 C 96.800 225.295,97.220 225.359,98.600 226.800 C 99.892 228.149,101.561 228.382,102.585 227.358 C 103.477 226.466,103.038 225.241,101.311 223.800 C 96.644 219.904,96.020 218.264,98.431 216.236 C 99.762 215.115,100.651 214.984,102.775 215.593 M253.975 215.593 C 255.440 216.013,255.984 216.581,255.994 217.700 C 256.001 218.535,255.461 218.604,254.720 217.863 C 253.237 216.380,251.120 216.190,250.619 217.496 C 250.290 218.352,251.195 219.597,253.324 221.220 C 256.407 223.571,257.156 225.731,255.582 227.732 C 253.467 230.421,248.000 229.549,248.000 226.524 C 248.000 225.295,248.420 225.359,249.800 226.800 C 251.092 228.149,252.761 228.382,253.785 227.358 C 254.677 226.466,254.238 225.241,252.511 223.800 C 247.844 219.904,247.220 218.264,249.631 216.236 C 250.962 215.115,251.851 214.984,253.975 215.593 M116.167 215.843 C 116.594 216.007,116.800 216.592,116.800 217.643 C 116.800 219.386,116.389 219.654,115.795 218.300 C 115.479 217.579,115.022 217.376,113.500 217.278 L 111.600 217.156 111.600 219.178 L 111.600 221.200 113.367 221.200 C 114.405 221.200,115.217 220.994,115.336 220.700 C 115.729 219.732,116.436 221.351,116.232 222.750 C 115.985 224.439,115.651 224.792,115.150 223.897 C 114.882 223.418,114.266 223.200,113.180 223.200 L 111.600 223.200 111.600 225.400 L 111.600 227.600 113.426 227.600 C 115.492 227.600,116.800 227.052,116.800 226.186 C 116.800 225.864,116.980 225.600,117.200 225.600 C 117.890 225.600,117.676 228.685,116.967 228.957 C 116.146 229.272,110.234 229.263,108.300 228.943 C 106.633 228.668,106.312 228.125,107.700 227.928 C 108.959 227.749,109.333 217.779,108.115 216.888 C 106.679 215.838,113.761 214.919,116.167 215.843 M128.008 216.204 C 130.134 217.304,130.665 219.847,129.166 221.753 L 128.332 222.813 129.419 224.707 C 130.017 225.748,130.961 227.090,131.517 227.688 C 132.449 228.692,132.471 228.798,131.801 229.055 C 130.666 229.491,129.172 228.396,127.345 225.791 C 125.149 222.660,124.246 222.588,124.078 225.532 C 123.971 227.400,124.057 227.690,124.778 227.878 C 127.012 228.462,123.947 229.504,121.400 229.026 C 120.051 228.773,119.416 228.000,120.557 228.000 C 121.425 228.000,121.600 227.062,121.600 222.400 C 121.600 217.738,121.425 216.800,120.557 216.800 C 119.864 216.800,119.824 216.138,120.500 215.865 C 121.680 215.389,126.886 215.624,128.008 216.204 M143.367 215.843 C 143.794 216.007,144.000 216.592,144.000 217.643 C 144.000 219.386,143.589 219.654,142.995 218.300 C 142.661 217.539,142.290 217.400,140.600 217.400 L 138.600 217.400 138.478 219.300 L 138.356 221.200 140.378 221.200 C 141.490 221.200,142.400 221.020,142.400 220.800 C 142.400 220.580,142.580 220.400,142.800 220.400 C 143.020 220.400,143.200 221.300,143.200 222.400 C 143.200 224.349,142.728 225.031,142.246 223.777 C 141.771 222.537,138.625 223.180,138.469 224.548 C 138.106 227.719,141.550 229.115,143.529 226.600 C 144.567 225.279,144.800 225.338,144.800 226.920 C 144.800 228.914,144.249 229.201,140.420 229.196 C 135.388 229.189,131.808 228.367,134.900 227.928 C 136.243 227.737,136.539 217.266,135.212 216.919 C 134.215 216.658,134.157 216.122,135.100 215.876 C 136.175 215.595,142.653 215.569,143.367 215.843 M152.706 218.090 C 153.968 219.459,155.851 221.484,156.891 222.590 L 158.783 224.600 158.791 221.123 C 158.799 217.993,158.712 217.584,157.924 217.032 C 156.811 216.252,157.128 215.949,159.280 215.736 C 161.505 215.515,162.546 216.113,161.398 216.951 C 160.684 217.472,160.579 218.130,160.400 223.234 C 160.282 226.592,160.032 228.991,159.790 229.071 C 159.565 229.146,157.433 227.045,155.053 224.403 C 152.672 221.761,150.555 219.600,150.348 219.600 C 149.430 219.600,150.143 227.375,151.100 227.795 C 152.327 228.333,152.230 228.654,150.750 228.950 C 148.073 229.485,146.646 228.949,147.621 227.774 C 148.548 226.658,148.686 218.696,147.802 217.347 C 147.002 216.126,147.443 215.616,149.306 215.606 C 150.153 215.601,150.948 216.182,152.706 218.090 M168.539 215.947 C 169.210 216.211,169.219 216.286,168.639 216.768 C 167.647 217.591,167.697 227.391,168.697 227.950 C 169.763 228.547,168.944 229.000,166.800 229.000 C 164.656 229.000,163.837 228.547,164.903 227.950 C 165.876 227.406,165.965 217.315,165.000 216.945 C 164.670 216.818,164.400 216.567,164.400 216.387 C 164.400 215.726,167.216 215.427,168.539 215.947 M184.431 217.300 C 184.702 218.971,184.335 219.200,183.307 218.000 C 182.819 217.430,182.127 217.200,180.899 217.200 L 179.176 217.200 179.288 222.300 C 179.395 227.153,179.444 227.419,180.300 227.795 C 182.230 228.642,179.420 229.510,176.400 229.000 C 174.651 228.704,174.276 228.130,175.700 227.928 C 176.575 227.804,176.603 227.653,176.712 222.500 L 176.823 217.200 175.026 217.200 C 173.638 217.200,173.131 217.382,172.800 218.000 C 172.215 219.092,171.600 219.007,171.600 217.833 C 171.600 215.566,171.588 215.570,178.140 215.690 L 184.187 215.800 184.431 217.300 M190.714 215.938 C 190.996 216.117,191.112 216.564,190.971 216.931 C 190.725 217.573,192.954 221.600,193.556 221.600 C 194.314 221.600,196.194 217.177,195.600 216.791 C 194.732 216.226,195.773 215.612,197.600 215.612 C 198.874 215.612,200.446 216.182,199.988 216.478 C 199.885 216.545,199.440 216.799,199.000 217.042 C 196.224 218.575,193.150 227.348,195.200 227.884 C 197.416 228.464,194.329 229.501,191.800 229.026 C 190.248 228.735,189.970 228.206,191.200 227.884 C 193.326 227.328,189.813 218.409,186.956 217.107 C 185.207 216.310,185.912 215.680,188.600 215.638 C 189.480 215.624,190.431 215.759,190.714 215.938 M244.167 215.843 C 244.594 216.007,244.800 216.592,244.800 217.643 C 244.800 219.386,244.389 219.654,243.795 218.300 C 243.479 217.579,243.022 217.376,241.500 217.278 L 239.600 217.156 239.600 219.178 L 239.600 221.200 241.367 221.200 C 242.405 221.200,243.217 220.994,243.336 220.700 C 243.729 219.732,244.436 221.351,244.232 222.750 C 243.985 224.439,243.651 224.792,243.150 223.897 C 242.882 223.418,242.266 223.200,241.180 223.200 L 239.600 223.200 239.600 225.400 L 239.600 227.600 241.426 227.600 C 243.492 227.600,244.800 227.052,244.800 226.186 C 244.800 225.864,244.980 225.600,245.200 225.600 C 245.890 225.600,245.676 228.685,244.967 228.957 C 244.146 229.272,238.234 229.263,236.300 228.943 C 234.633 228.668,234.312 228.125,235.700 227.928 C 236.959 227.749,237.333 217.779,236.115 216.888 C 234.679 215.838,241.761 214.919,244.167 215.843 M271.123 217.500 C 271.257 219.350,270.821 219.726,270.195 218.300 C 269.878 217.578,269.422 217.376,267.888 217.278 L 265.976 217.155 266.088 222.278 C 266.195 227.154,266.243 227.419,267.100 227.795 C 268.403 228.367,268.213 228.694,266.400 229.000 C 263.455 229.498,260.088 228.466,262.600 227.836 L 263.600 227.585 263.600 222.370 L 263.600 217.156 261.700 217.278 C 260.178 217.376,259.721 217.579,259.405 218.300 C 258.814 219.648,258.400 219.388,258.400 217.667 C 258.400 215.531,258.277 215.568,264.977 215.690 L 271.000 215.800 271.123 217.500 M280.689 216.100 C 280.902 216.375,281.947 219.100,283.010 222.156 C 284.409 226.176,285.146 227.765,285.672 227.903 C 287.830 228.467,284.946 229.430,282.391 228.999 C 280.843 228.737,280.148 228.000,281.450 228.000 C 282.148 228.000,282.077 226.899,281.239 224.700 C 280.201 221.977,277.232 223.361,276.521 226.900 C 276.352 227.739,276.454 228.000,276.950 228.000 C 277.914 228.000,277.737 228.670,276.700 228.948 C 274.476 229.544,272.450 228.850,273.687 227.916 C 274.062 227.632,275.207 224.970,276.231 222.000 C 278.246 216.155,278.538 215.600,279.600 215.600 C 279.986 215.600,280.476 215.825,280.689 216.100 M300.320 216.080 C 300.844 216.604,300.989 219.200,300.495 219.200 C 300.327 219.200,300.012 218.795,299.795 218.300 C 299.478 217.578,299.022 217.376,297.488 217.278 L 295.576 217.155 295.688 222.478 C 295.797 227.654,295.825 227.804,296.700 227.928 C 298.124 228.130,297.749 228.704,296.000 229.000 C 293.213 229.471,289.691 228.488,292.000 227.884 C 292.749 227.688,292.800 227.338,292.800 222.437 L 292.800 217.200 291.027 217.200 C 289.605 217.200,289.204 217.359,289.000 218.000 C 288.572 219.348,288.000 218.890,288.000 217.200 L 288.000 215.600 293.920 215.600 C 297.991 215.600,299.990 215.750,300.320 216.080 M311.968 216.162 C 312.458 216.752,312.160 218.800,311.584 218.800 C 311.402 218.800,311.140 218.440,311.000 218.000 C 310.791 217.342,310.395 217.200,308.773 217.200 L 306.800 217.200 306.800 219.200 L 306.800 221.200 308.576 221.200 C 309.553 221.200,310.464 221.020,310.600 220.800 C 311.160 219.894,311.600 220.510,311.600 222.200 C 311.600 223.533,311.444 224.000,311.000 224.000 C 310.670 224.000,310.400 223.810,310.400 223.577 C 310.400 223.327,309.706 223.204,308.700 223.277 C 306.865 223.410,306.396 224.336,306.982 226.669 C 307.330 228.057,311.171 227.922,311.795 226.500 C 312.334 225.271,312.654 225.370,312.951 226.857 C 313.357 228.885,312.771 229.200,308.601 229.200 C 303.275 229.200,300.678 228.519,303.400 227.836 L 304.400 227.585 304.400 222.355 C 304.400 217.462,304.349 217.112,303.600 216.916 C 302.613 216.658,302.562 216.121,303.500 215.876 C 305.302 215.405,311.514 215.615,311.968 216.162 M124.165 217.348 C 123.670 218.636,124.189 222.190,124.891 222.324 C 125.858 222.508,127.600 220.640,127.600 219.418 C 127.600 217.549,124.747 215.830,124.165 217.348 M278.643 220.233 C 278.237 221.290,278.363 221.600,279.200 221.600 C 279.640 221.600,280.000 221.435,280.000 221.233 C 280.000 220.575,279.522 219.600,279.200 219.600 C 279.027 219.600,278.776 219.885,278.643 220.233 M128.667 235.044 C 130.014 235.405,130.657 237.349,129.841 238.593 C 129.305 239.412,129.276 239.733,129.684 240.385 C 130.598 241.849,129.356 242.444,128.191 241.100 C 127.004 239.730,126.489 239.714,125.988 241.033 C 125.275 242.906,124.607 241.918,124.481 238.805 C 124.315 234.698,125.019 234.065,128.667 235.044 M139.028 235.245 C 139.411 235.864,138.443 236.387,136.900 236.394 C 136.014 236.398,135.600 236.591,135.600 237.000 C 135.600 237.419,136.022 237.600,137.000 237.600 C 138.133 237.600,138.400 237.752,138.400 238.400 C 138.400 239.048,138.133 239.200,137.000 239.200 C 136.022 239.200,135.600 239.381,135.600 239.800 C 135.600 240.232,136.042 240.400,137.176 240.400 C 138.844 240.400,139.675 241.054,138.751 241.639 C 138.118 242.040,135.171 242.117,134.233 241.757 C 133.579 241.506,133.260 235.673,133.867 235.067 C 134.315 234.618,138.735 234.771,139.028 235.245 M147.841 237.863 C 149.518 241.542,149.216 243.429,147.307 241.200 C 146.516 240.276,144.480 240.126,144.157 240.969 C 143.878 241.696,143.064 242.011,142.449 241.630 C 141.978 241.339,142.413 240.022,144.274 236.101 C 145.317 233.902,146.245 234.360,147.841 237.863 M153.924 237.219 C 154.066 239.696,154.499 240.400,155.878 240.400 C 156.597 240.400,156.823 240.587,156.724 241.100 C 156.617 241.655,156.176 241.800,154.595 241.800 L 152.600 241.800 152.481 238.837 C 152.351 235.580,152.544 234.649,153.300 234.898 C 153.595 234.995,153.851 235.946,153.924 237.219 M170.400 235.600 C 170.400 236.269,170.133 236.400,168.767 236.400 C 166.794 236.400,166.780 237.294,168.748 237.600 C 169.454 237.710,170.024 237.935,170.016 238.100 C 170.007 238.265,170.000 238.569,170.000 238.775 C 170.000 238.981,169.415 239.206,168.700 239.275 C 166.969 239.442,167.037 240.167,168.800 240.329 C 171.859 240.609,171.182 241.983,167.980 241.994 C 165.581 242.002,165.200 241.530,165.200 238.553 C 165.200 234.917,165.289 234.800,168.043 234.800 C 170.133 234.800,170.400 234.891,170.400 235.600 M178.567 235.043 C 179.958 235.577,179.312 236.910,177.800 236.626 C 176.076 236.303,175.959 236.920,177.615 237.606 C 180.900 238.967,179.214 242.594,175.660 241.813 C 173.411 241.319,173.576 239.409,175.831 239.832 C 176.722 239.999,177.200 239.934,177.200 239.645 C 177.200 239.400,176.922 239.200,176.582 239.200 C 175.886 239.200,174.000 237.460,174.000 236.818 C 174.000 235.411,176.745 234.344,178.567 235.043 M187.800 235.600 C 187.800 235.930,187.395 236.258,186.900 236.328 C 186.075 236.445,186.000 236.666,186.000 238.985 C 186.000 240.765,185.837 241.577,185.449 241.726 C 184.480 242.098,184.000 241.103,184.000 238.720 C 184.000 236.667,183.908 236.400,183.200 236.400 C 182.661 236.400,182.400 236.133,182.400 235.582 C 182.400 234.826,182.608 234.773,185.100 234.882 C 187.181 234.973,187.800 235.138,187.800 235.600 M196.334 238.133 C 197.859 241.527,197.609 242.900,195.780 241.182 C 195.323 240.752,194.522 240.400,194.000 240.400 C 193.478 240.400,192.677 240.752,192.220 241.182 C 190.450 242.844,190.182 241.539,191.637 238.344 C 193.735 233.734,194.346 233.707,196.334 238.133 M205.600 235.600 C 205.600 236.133,205.333 236.400,204.800 236.400 C 204.091 236.400,204.000 236.667,204.000 238.751 C 204.000 240.321,203.807 241.263,203.418 241.585 C 202.418 242.415,202.000 241.647,202.000 238.976 C 202.000 236.693,201.912 236.400,201.224 236.400 C 200.345 236.400,199.831 235.798,200.200 235.200 C 200.723 234.354,205.600 234.715,205.600 235.600 M214.228 235.245 C 214.611 235.864,213.643 236.387,212.100 236.394 C 211.214 236.398,210.800 236.591,210.800 237.000 C 210.800 237.419,211.222 237.600,212.200 237.600 C 213.333 237.600,213.600 237.752,213.600 238.400 C 213.600 239.048,213.333 239.200,212.200 239.200 C 211.222 239.200,210.800 239.381,210.800 239.800 C 210.800 240.232,211.242 240.400,212.376 240.400 C 214.044 240.400,214.875 241.054,213.951 241.639 C 213.318 242.040,210.371 242.117,209.433 241.757 C 208.779 241.506,208.460 235.673,209.067 235.067 C 209.515 234.618,213.935 234.771,214.228 235.245 M228.334 238.133 C 229.859 241.527,229.609 242.900,227.780 241.182 C 227.323 240.752,226.522 240.400,226.000 240.400 C 225.478 240.400,224.677 240.752,224.220 241.182 C 222.450 242.844,222.182 241.539,223.637 238.344 C 225.735 233.734,226.346 233.707,228.334 238.133 M237.767 235.043 C 239.185 235.587,238.507 236.909,236.960 236.619 C 234.429 236.144,232.943 238.489,234.944 239.800 C 236.093 240.553,237.110 240.233,237.277 239.066 C 237.471 237.700,238.581 238.004,238.722 239.462 C 239.048 242.817,233.519 242.791,232.410 239.431 C 231.407 236.392,234.558 233.811,237.767 235.043 M247.828 235.245 C 248.211 235.864,247.243 236.387,245.700 236.394 C 244.814 236.398,244.400 236.591,244.400 237.000 C 244.400 237.419,244.822 237.600,245.800 237.600 C 246.933 237.600,247.200 237.752,247.200 238.400 C 247.200 239.048,246.933 239.200,245.800 239.200 C 244.822 239.200,244.400 239.381,244.400 239.800 C 244.400 240.232,244.842 240.400,245.976 240.400 C 247.644 240.400,248.475 241.054,247.551 241.639 C 246.918 242.040,243.971 242.117,243.033 241.757 C 242.379 241.506,242.060 235.673,242.667 235.067 C 243.115 234.618,247.535 234.771,247.828 235.245 M253.019 235.106 C 253.250 235.268,253.847 235.985,254.347 236.700 C 255.524 238.386,255.924 238.340,256.076 236.500 C 256.333 233.390,257.388 234.674,257.515 238.251 C 257.675 242.755,256.817 243.043,254.113 239.397 L 253.225 238.200 253.213 239.620 C 253.199 241.188,252.599 242.051,251.751 241.726 C 251.172 241.504,250.920 235.613,251.467 235.067 C 251.814 234.720,252.492 234.737,253.019 235.106 M266.426 235.214 C 267.874 235.989,267.388 236.902,265.681 236.614 C 263.641 236.269,262.415 237.437,263.142 239.032 C 263.553 239.935,263.816 240.046,265.301 239.938 C 267.358 239.790,267.939 240.881,266.219 241.664 C 263.395 242.951,260.059 239.954,261.214 237.167 C 262.092 235.046,264.457 234.160,266.426 235.214 M272.543 236.079 L 273.545 237.359 274.027 236.301 C 274.568 235.112,275.541 234.581,276.118 235.158 C 276.362 235.402,276.121 236.221,275.451 237.421 C 274.873 238.455,274.400 239.799,274.400 240.408 C 274.400 241.616,273.561 242.201,272.849 241.489 C 272.602 241.242,272.400 240.710,272.400 240.307 C 272.400 239.903,271.944 238.673,271.386 237.572 C 269.936 234.711,270.701 233.725,272.543 236.079 M126.129 237.040 C 125.919 237.587,126.555 238.388,127.200 238.388 C 127.310 238.388,127.651 238.229,127.958 238.034 C 128.733 237.544,128.202 236.400,127.200 236.400 C 126.746 236.400,126.264 236.688,126.129 237.040 M193.600 238.200 C 193.600 238.530,193.780 238.800,194.000 238.800 C 194.220 238.800,194.400 238.530,194.400 238.200 C 194.400 237.870,194.220 237.600,194.000 237.600 C 193.780 237.600,193.600 237.870,193.600 238.200 M225.600 238.200 C 225.600 238.530,225.780 238.800,226.000 238.800 C 226.220 238.800,226.400 238.530,226.400 238.200 C 226.400 237.870,226.220 237.600,226.000 237.600 C 225.780 237.600,225.600 237.870,225.600 238.200 " stroke="none" fill="#fbfbfb" fill-rule="evenodd"></path><path id="path1" d="M230.243 152.633 C 230.109 152.981,230.000 155.501,230.000 158.233 C 230.000 164.097,230.034 164.072,226.368 160.887 C 224.921 159.629,222.441 157.475,220.858 156.100 C 219.275 154.725,217.806 153.600,217.594 153.600 C 216.909 153.600,184.000 182.035,184.000 182.627 C 184.000 183.212,185.425 183.445,185.667 182.900 C 185.740 182.735,186.970 181.611,188.400 180.402 C 189.830 179.194,191.090 178.113,191.200 178.000 C 191.310 177.887,192.570 176.807,194.000 175.600 C 195.430 174.393,196.690 173.313,196.800 173.200 C 196.910 173.087,198.170 172.007,199.600 170.800 C 201.030 169.593,202.290 168.513,202.400 168.400 C 202.510 168.287,203.770 167.207,205.200 166.000 C 206.630 164.793,207.890 163.713,208.000 163.600 C 208.110 163.487,209.370 162.407,210.800 161.200 C 212.230 159.993,213.490 158.910,213.600 158.794 C 216.743 155.475,217.885 155.327,220.600 157.886 C 221.260 158.508,223.645 160.607,225.900 162.550 L 230.000 166.083 230.000 190.209 C 230.000 214.580,230.042 215.600,231.040 215.600 C 231.504 215.600,231.610 211.810,231.697 192.133 C 231.765 176.641,231.939 168.620,232.208 168.531 C 232.561 168.413,236.501 171.722,246.758 180.749 C 249.327 183.010,250.800 183.726,250.800 182.715 C 250.800 182.418,247.080 178.941,242.534 174.988 C 237.988 171.034,233.668 167.239,232.934 166.553 L 231.600 165.306 231.600 158.653 C 231.600 152.176,231.163 150.236,230.243 152.633 M216.652 168.900 C 216.336 170.080,216.327 226.144,216.643 226.967 C 216.776 227.315,217.136 227.600,217.443 227.600 C 217.914 227.600,218.000 223.005,218.000 197.800 C 218.000 172.694,217.913 168.000,217.447 168.000 C 217.142 168.000,216.785 168.405,216.652 168.900 M203.443 177.033 C 202.310 179.985,203.348 212.519,204.537 211.330 C 205.122 210.744,204.833 176.400,204.243 176.400 C 203.936 176.400,203.576 176.685,203.443 177.033 M190.267 188.667 C 189.569 189.364,189.981 200.062,190.700 199.925 C 191.301 199.810,191.417 199.225,191.523 195.795 C 191.698 190.103,191.268 187.665,190.267 188.667 M243.875 188.658 C 243.088 189.445,243.587 200.000,244.411 200.000 C 245.193 200.000,245.218 199.795,245.111 194.333 C 245.007 189.048,244.735 187.798,243.875 188.658 M109.000 216.400 C 108.864 216.620,108.943 216.800,109.176 216.800 C 109.454 216.800,109.600 218.725,109.600 222.400 C 109.600 226.489,109.470 228.000,109.120 228.000 C 108.787 228.000,108.768 228.128,109.056 228.416 C 109.594 228.954,116.487 228.746,116.672 228.187 C 116.761 227.919,115.827 227.829,114.020 227.931 L 111.231 228.089 111.239 222.444 L 111.246 216.800 113.847 216.800 C 115.479 216.800,116.355 216.651,116.200 216.400 C 116.064 216.180,114.444 216.000,112.600 216.000 C 110.756 216.000,109.136 216.180,109.000 216.400 M121.800 222.385 L 121.800 228.800 122.943 228.800 C 123.891 228.800,124.029 228.681,123.754 228.100 C 123.572 227.715,123.390 224.880,123.351 221.800 C 123.286 216.690,123.215 216.190,122.540 216.085 C 121.846 215.978,121.800 216.370,121.800 222.385 M126.400 216.290 C 126.400 216.465,126.760 216.832,127.200 217.107 C 128.455 217.891,128.322 220.889,126.985 221.940 L 125.970 222.738 127.373 224.930 C 128.665 226.950,130.716 229.018,131.073 228.661 C 131.156 228.578,130.408 227.270,129.412 225.755 C 127.285 222.518,127.337 222.786,128.600 221.600 C 129.767 220.504,129.883 218.971,128.891 217.747 C 128.125 216.801,126.400 215.792,126.400 216.290 M136.257 216.700 C 136.707 217.618,136.702 227.191,136.251 228.115 C 135.927 228.781,136.174 228.822,139.819 228.715 C 144.397 228.581,145.490 227.800,141.100 227.800 L 138.200 227.800 138.079 225.466 C 138.012 224.169,138.154 222.897,138.398 222.602 C 138.703 222.235,138.709 221.991,138.419 221.812 C 138.189 221.669,138.000 220.483,138.000 219.176 L 138.000 216.800 140.624 216.800 C 142.271 216.800,143.155 216.651,143.000 216.400 C 142.508 215.603,135.865 215.899,136.257 216.700 M148.781 216.300 C 148.770 216.465,148.778 219.147,148.799 222.261 C 148.827 226.555,148.711 227.968,148.318 228.114 C 147.949 228.251,148.002 228.390,148.500 228.596 C 148.885 228.755,149.515 228.755,149.900 228.596 C 150.375 228.400,150.439 228.247,150.100 228.120 C 149.738 227.985,149.600 226.607,149.600 223.133 C 149.600 217.284,149.343 217.270,154.916 223.429 C 157.289 226.053,159.404 228.260,159.616 228.333 C 159.850 228.415,160.000 226.190,160.000 222.633 C 160.000 218.794,160.145 216.800,160.424 216.800 C 160.657 216.800,160.736 216.620,160.600 216.400 C 159.506 214.630,159.002 216.075,159.134 220.599 C 159.289 225.899,159.215 225.972,156.589 223.100 C 150.677 216.634,148.861 215.053,148.781 216.300 M165.989 216.172 C 165.651 222.904,166.023 228.600,166.800 228.600 C 168.108 228.600,168.133 216.275,166.825 216.072 C 166.371 216.002,165.995 216.047,165.989 216.172 M172.207 216.389 C 171.906 216.876,171.947 216.883,174.900 216.804 L 177.200 216.743 177.200 222.148 C 177.200 225.378,177.036 227.654,176.793 227.804 C 176.101 228.232,176.789 228.800,178.000 228.800 C 179.211 228.800,179.899 228.232,179.207 227.804 C 178.964 227.654,178.800 225.378,178.800 222.148 L 178.800 216.743 181.100 216.837 C 182.365 216.889,183.490 216.767,183.600 216.566 C 183.886 216.043,172.529 215.867,172.207 216.389 M187.440 216.336 C 187.310 216.545,187.458 216.814,187.769 216.933 C 188.079 217.052,189.361 218.872,190.618 220.979 C 192.946 224.880,193.132 225.721,192.191 228.100 C 191.964 228.674,192.134 228.800,193.134 228.800 C 194.400 228.800,195.114 228.241,194.407 227.804 C 192.749 226.780,195.457 219.250,198.323 216.911 C 198.852 216.480,198.845 216.392,198.261 216.168 C 197.332 215.812,196.372 216.261,196.629 216.932 C 196.958 217.789,194.267 222.400,193.439 222.400 C 192.870 222.400,189.950 217.431,190.096 216.711 C 190.219 216.105,187.794 215.762,187.440 216.336 M237.000 216.400 C 236.864 216.620,236.943 216.800,237.176 216.800 C 237.454 216.800,237.600 218.725,237.600 222.400 C 237.600 226.489,237.470 228.000,237.120 228.000 C 236.787 228.000,236.768 228.128,237.056 228.416 C 237.594 228.954,244.487 228.746,244.672 228.187 C 244.761 227.919,243.827 227.829,242.020 227.931 L 239.231 228.089 239.239 222.444 L 239.246 216.800 241.847 216.800 C 243.479 216.800,244.355 216.651,244.200 216.400 C 244.064 216.180,242.444 216.000,240.600 216.000 C 238.756 216.000,237.136 216.180,237.000 216.400 M259.200 216.400 C 259.200 216.622,260.267 216.800,261.600 216.800 L 264.000 216.800 264.000 222.400 C 264.000 226.075,263.854 228.000,263.576 228.000 C 263.343 228.000,263.264 228.180,263.400 228.400 C 263.536 228.620,264.166 228.800,264.800 228.800 C 265.434 228.800,266.064 228.620,266.200 228.400 C 266.336 228.180,266.257 228.000,266.024 228.000 C 265.746 228.000,265.600 226.075,265.600 222.400 L 265.600 216.800 268.000 216.800 C 269.333 216.800,270.400 216.622,270.400 216.400 C 270.400 216.152,268.267 216.000,264.800 216.000 C 261.333 216.000,259.200 216.152,259.200 216.400 M278.644 216.500 C 278.327 217.712,277.520 220.268,277.223 221.000 C 277.045 221.440,276.697 222.303,276.450 222.919 C 275.892 224.305,275.868 225.329,276.400 225.000 C 276.620 224.864,276.800 224.403,276.800 223.976 C 276.800 223.298,277.090 223.200,279.108 223.200 L 281.415 223.200 282.086 225.424 C 282.455 226.648,282.657 227.908,282.535 228.224 C 282.374 228.645,282.631 228.800,283.491 228.800 C 284.987 228.800,285.350 228.433,284.643 227.632 C 284.335 227.285,283.802 226.190,283.458 225.200 C 280.265 216.005,280.262 216.000,279.364 216.000 C 279.040 216.000,278.716 216.225,278.644 216.500 M288.600 216.400 C 288.445 216.651,289.329 216.800,290.976 216.800 L 293.600 216.800 293.600 222.176 C 293.600 225.329,293.435 227.655,293.200 227.800 C 292.358 228.320,292.858 228.800,294.243 228.800 C 295.472 228.800,295.638 228.696,295.366 228.100 C 294.959 227.209,294.648 219.060,294.971 217.771 C 295.196 216.877,295.407 216.800,297.631 216.800 C 299.140 216.800,299.954 216.650,299.800 216.400 C 299.655 216.166,297.337 216.000,294.200 216.000 C 291.063 216.000,288.745 216.166,288.600 216.400 M304.600 222.399 L 304.600 228.827 308.395 228.713 C 311.805 228.612,312.206 228.520,312.342 227.813 C 312.469 227.147,312.398 227.104,311.880 227.534 C 311.495 227.853,310.399 227.997,308.934 227.921 L 306.600 227.800 306.482 225.100 C 306.378 222.729,306.451 222.399,307.082 222.388 C 307.761 222.376,307.762 222.354,307.100 221.968 C 306.556 221.651,306.400 221.023,306.400 219.146 L 306.400 216.732 309.001 216.866 C 310.615 216.949,311.551 216.848,311.469 216.600 C 311.395 216.380,309.820 216.149,307.968 216.086 L 304.600 215.972 304.600 222.399 M98.262 217.131 C 97.141 218.370,97.467 219.508,99.459 221.314 C 103.838 225.283,103.717 225.122,103.467 226.665 C 103.241 228.060,103.253 228.076,104.018 227.384 C 105.398 226.135,104.860 224.189,102.641 222.400 C 99.536 219.897,98.704 218.833,98.886 217.595 C 99.093 216.186,99.108 216.197,98.262 217.131 M249.462 217.131 C 248.341 218.370,248.667 219.508,250.659 221.314 C 255.038 225.283,254.917 225.122,254.667 226.665 C 254.441 228.060,254.453 228.076,255.218 227.384 C 256.598 226.135,256.060 224.189,253.841 222.400 C 250.736 219.897,249.904 218.833,250.086 217.595 C 250.293 216.186,250.308 216.197,249.462 217.131 M280.207 219.879 C 280.988 221.749,280.738 222.400,279.236 222.400 C 277.679 222.400,277.477 221.981,278.088 220.023 C 278.718 218.006,279.405 217.959,280.207 219.879 M114.400 222.000 C 113.887 222.331,113.902 222.389,114.500 222.394 C 114.885 222.397,115.200 222.591,115.200 222.824 C 115.200 223.057,115.380 223.136,115.600 223.000 C 116.171 222.647,116.096 221.599,115.500 221.606 C 115.225 221.609,114.730 221.787,114.400 222.000 M141.428 221.955 C 141.308 222.150,141.567 222.403,142.004 222.517 C 142.520 222.652,142.800 222.527,142.800 222.163 C 142.800 221.544,141.777 221.389,141.428 221.955 M242.400 222.000 C 241.887 222.331,241.902 222.389,242.500 222.394 C 242.885 222.397,243.200 222.591,243.200 222.824 C 243.200 223.057,243.380 223.136,243.600 223.000 C 244.171 222.647,244.096 221.599,243.500 221.606 C 243.225 221.609,242.730 221.787,242.400 222.000 M309.600 222.000 C 309.256 222.222,309.199 222.390,309.467 222.394 C 309.724 222.397,310.219 222.509,310.567 222.643 C 310.982 222.802,311.200 222.665,311.200 222.243 C 311.200 221.522,310.503 221.416,309.600 222.000 M275.005 227.049 C 274.252 228.853,274.247 228.800,275.153 228.800 C 275.761 228.800,275.910 228.492,275.928 227.200 C 275.955 225.225,275.780 225.196,275.005 227.049 M97.692 227.675 C 97.779 227.936,98.064 228.221,98.325 228.308 C 98.618 228.406,98.707 228.223,98.557 227.833 C 98.278 227.106,97.452 226.955,97.692 227.675 M248.892 227.675 C 248.979 227.936,249.264 228.221,249.525 228.308 C 249.818 228.406,249.907 228.223,249.757 227.833 C 249.478 227.106,248.652 226.955,248.892 227.675 M125.067 235.467 C 124.635 235.899,124.758 241.200,125.200 241.200 C 125.420 241.200,125.600 240.876,125.600 240.480 C 125.600 240.084,125.796 239.564,126.035 239.325 C 126.348 239.012,126.348 238.815,126.035 238.622 C 124.757 237.832,125.571 236.000,127.200 236.000 C 129.061 236.000,129.690 238.064,127.993 238.602 C 127.081 238.892,128.299 241.237,129.327 241.168 C 129.662 241.146,129.654 241.078,129.300 240.935 C 128.704 240.695,128.630 238.952,129.200 238.600 C 129.852 238.197,129.656 236.575,128.869 235.862 C 128.149 235.211,125.589 234.945,125.067 235.467 M134.483 238.300 L 134.600 241.400 136.153 241.527 C 137.007 241.597,137.898 241.462,138.133 241.227 C 138.436 240.924,138.078 240.800,136.901 240.800 L 135.242 240.800 135.253 238.400 L 135.265 236.000 136.632 236.000 C 137.385 236.000,138.000 235.820,138.000 235.600 C 138.000 235.380,137.182 235.200,136.183 235.200 L 134.366 235.200 134.483 238.300 M145.067 235.467 C 144.516 236.017,144.829 236.800,145.600 236.800 C 146.040 236.800,146.400 237.055,146.400 237.367 C 146.400 237.679,146.509 238.219,146.643 238.567 C 146.832 239.061,146.611 239.200,145.635 239.200 C 144.501 239.200,144.408 239.107,144.636 238.200 C 145.178 236.041,143.923 237.893,143.026 240.578 C 142.779 241.314,142.806 241.319,143.514 240.678 C 144.441 239.839,146.929 239.792,147.600 240.600 C 148.415 241.582,148.778 241.282,148.208 240.100 C 147.916 239.495,147.295 238.145,146.828 237.100 C 146.007 235.261,145.626 234.907,145.067 235.467 M165.767 235.742 C 165.652 236.040,165.613 237.435,165.679 238.842 L 165.800 241.400 167.900 241.521 C 169.179 241.595,170.000 241.477,170.000 241.221 C 170.000 240.989,169.274 240.800,168.387 240.800 C 166.515 240.800,165.932 239.980,166.981 238.821 C 167.618 238.117,167.617 238.049,166.967 237.686 C 165.742 237.000,166.585 236.000,168.387 236.000 C 169.274 236.000,170.000 235.820,170.000 235.600 C 170.000 234.969,166.012 235.103,165.767 235.742 M175.216 235.781 C 174.443 236.712,174.904 237.747,176.405 238.456 C 177.172 238.818,177.782 239.314,177.760 239.557 C 177.660 240.668,177.545 240.800,176.680 240.800 C 176.174 240.800,175.544 240.584,175.280 240.320 C 174.907 239.947,174.800 239.949,174.800 240.329 C 174.800 241.318,176.680 241.771,177.784 241.048 C 179.248 240.088,179.073 239.020,177.300 238.100 C 175.430 237.130,175.346 236.244,177.108 236.074 C 177.827 236.005,178.311 235.780,178.184 235.574 C 177.823 234.991,175.752 235.135,175.216 235.781 M182.800 235.600 C 182.800 235.820,183.250 236.000,183.800 236.000 C 184.764 236.000,184.800 236.093,184.800 238.600 C 184.800 240.067,184.974 241.200,185.200 241.200 C 185.426 241.200,185.600 240.067,185.600 238.600 C 185.600 236.267,185.682 236.000,186.400 236.000 C 186.840 236.000,187.200 235.820,187.200 235.600 C 187.200 235.380,186.210 235.200,185.000 235.200 C 183.790 235.200,182.800 235.380,182.800 235.600 M193.296 235.995 C 192.585 237.133,192.645 237.827,193.400 237.200 C 194.151 236.577,195.200 237.305,195.200 238.449 C 195.200 239.478,192.924 239.525,192.717 238.500 C 192.611 237.979,192.399 238.149,191.888 239.161 C 191.101 240.720,191.033 241.200,191.600 241.200 C 191.820 241.200,192.000 240.930,192.000 240.600 C 192.000 240.147,192.489 240.000,194.000 240.000 C 195.511 240.000,196.000 240.147,196.000 240.600 C 196.000 240.930,196.180 241.200,196.400 241.200 C 197.026 241.200,196.888 240.613,195.605 237.810 C 194.312 234.987,194.053 234.783,193.296 235.995 M200.800 235.600 C 200.800 235.820,201.160 236.000,201.600 236.000 C 202.318 236.000,202.400 236.267,202.400 238.600 C 202.400 240.067,202.574 241.200,202.800 241.200 C 203.026 241.200,203.200 240.067,203.200 238.600 C 203.200 236.093,203.236 236.000,204.200 236.000 C 204.750 236.000,205.200 235.820,205.200 235.600 C 205.200 235.380,204.210 235.200,203.000 235.200 C 201.790 235.200,200.800 235.380,200.800 235.600 M209.683 238.300 L 209.800 241.400 211.353 241.527 C 212.207 241.597,213.098 241.462,213.333 241.227 C 213.636 240.924,213.278 240.800,212.101 240.800 L 210.442 240.800 210.453 238.400 L 210.465 236.000 211.832 236.000 C 212.585 236.000,213.200 235.820,213.200 235.600 C 213.200 235.380,212.382 235.200,211.383 235.200 L 209.566 235.200 209.683 238.300 M225.296 235.995 C 224.585 237.133,224.645 237.827,225.400 237.200 C 226.151 236.577,227.200 237.305,227.200 238.449 C 227.200 239.478,224.924 239.525,224.717 238.500 C 224.611 237.979,224.399 238.149,223.888 239.161 C 223.101 240.720,223.033 241.200,223.600 241.200 C 223.820 241.200,224.000 240.930,224.000 240.600 C 224.000 240.147,224.489 240.000,226.000 240.000 C 227.511 240.000,228.000 240.147,228.000 240.600 C 228.000 240.930,228.180 241.200,228.400 241.200 C 229.026 241.200,228.888 240.613,227.605 237.810 C 226.312 234.987,226.053 234.783,225.296 235.995 M233.858 236.181 C 232.013 237.891,232.852 240.796,235.373 241.429 C 236.564 241.728,238.400 240.590,238.400 239.554 C 238.400 238.492,237.682 238.612,237.528 239.700 C 237.216 241.898,233.600 240.618,233.600 238.309 C 233.600 236.747,234.439 236.000,236.195 236.000 C 237.061 236.000,237.547 235.839,237.400 235.600 C 236.941 234.857,234.932 235.186,233.858 236.181 M243.283 238.300 L 243.400 241.400 244.953 241.527 C 245.807 241.597,246.698 241.462,246.933 241.227 C 247.236 240.924,246.878 240.800,245.701 240.800 L 244.042 240.800 244.053 238.400 L 244.065 236.000 245.432 236.000 C 246.185 236.000,246.800 235.820,246.800 235.600 C 246.800 235.380,245.982 235.200,244.983 235.200 L 243.166 235.200 243.283 238.300 M252.011 238.100 C 252.005 239.907,252.167 241.200,252.400 241.200 C 252.620 241.200,252.800 240.420,252.800 239.467 C 252.800 236.995,253.137 236.949,254.717 239.206 C 256.716 242.061,257.289 241.880,256.956 238.500 C 256.648 235.370,256.400 234.750,256.400 237.110 C 256.400 238.935,255.715 239.706,255.088 238.585 C 254.864 238.186,254.083 237.215,253.351 236.429 L 252.022 235.000 252.011 238.100 M262.700 236.046 C 260.684 237.550,261.606 240.785,264.240 241.446 C 264.811 241.589,265.457 241.503,265.709 241.251 C 266.044 240.916,265.845 240.800,264.942 240.800 C 263.466 240.800,262.400 239.726,262.400 238.240 C 262.400 236.745,263.263 236.000,264.995 236.000 C 265.861 236.000,266.347 235.839,266.200 235.600 C 265.787 234.931,263.866 235.176,262.700 236.046 M152.882 238.500 L 153.000 241.400 154.500 241.524 C 155.368 241.596,156.000 241.470,156.000 241.224 C 156.000 240.991,155.460 240.800,154.800 240.800 L 153.600 240.800 153.600 238.200 C 153.600 236.661,153.430 235.600,153.182 235.600 C 152.920 235.600,152.809 236.677,152.882 238.500 M271.213 235.688 C 271.206 235.846,271.560 236.617,272.000 237.400 C 272.440 238.183,272.800 239.359,272.800 240.012 C 272.800 240.665,272.980 241.200,273.200 241.200 C 273.420 241.200,273.601 240.795,273.601 240.300 C 273.602 239.805,273.929 238.860,274.327 238.200 C 275.468 236.308,275.758 235.371,275.009 235.992 C 274.674 236.270,274.400 236.727,274.400 237.006 C 274.400 237.734,273.109 238.134,272.752 237.516 C 272.196 236.552,271.225 235.399,271.213 235.688 " stroke="none" fill="#39888a" fill-rule="evenodd"></path><path id="path2" d="M230.080 151.680 C 229.757 152.003,229.600 153.831,229.600 157.280 C 229.600 160.096,229.465 162.399,229.300 162.398 C 229.135 162.396,226.606 160.326,223.679 157.798 C 220.753 155.269,218.018 153.200,217.602 153.200 C 217.023 153.200,212.511 156.576,211.200 157.989 C 211.090 158.108,209.830 159.193,208.400 160.400 C 206.970 161.607,205.710 162.687,205.600 162.800 C 205.490 162.913,204.230 163.993,202.800 165.200 C 201.370 166.407,200.110 167.487,200.000 167.600 C 199.890 167.713,198.630 168.793,197.200 170.000 C 195.770 171.207,194.510 172.287,194.400 172.400 C 194.290 172.513,193.032 173.594,191.604 174.802 C 183.560 181.613,183.057 182.121,183.376 183.125 C 183.914 184.819,185.208 183.878,201.165 170.200 C 210.020 162.610,217.436 156.400,217.645 156.400 C 217.855 156.400,220.630 158.670,223.813 161.445 L 229.600 166.491 229.600 190.996 C 229.600 217.877,229.556 217.435,232.092 215.857 C 232.142 215.826,232.277 205.295,232.392 192.457 L 232.600 169.113 241.129 176.557 C 248.978 183.407,251.200 184.929,251.200 183.455 C 251.200 183.113,250.867 182.967,250.300 183.062 C 249.602 183.180,247.602 181.633,241.400 176.181 C 237.000 172.313,233.085 168.974,232.700 168.760 C 232.037 168.392,232.000 169.588,232.000 191.412 C 232.000 214.832,231.891 216.672,230.572 215.577 C 230.087 215.175,230.000 211.374,230.000 190.701 L 230.000 166.300 228.100 164.604 C 216.895 154.602,217.473 154.791,212.800 159.594 C 212.690 159.707,211.430 160.785,210.000 161.990 C 208.570 163.194,207.310 164.274,207.200 164.390 C 207.090 164.505,205.830 165.585,204.400 166.790 C 202.970 167.994,201.710 169.074,201.600 169.190 C 201.490 169.305,200.230 170.385,198.800 171.590 C 197.370 172.794,196.110 173.874,196.000 173.990 C 195.890 174.105,194.630 175.185,193.200 176.390 C 191.770 177.594,190.510 178.674,190.400 178.790 C 187.522 181.818,183.785 184.014,184.075 182.505 C 184.240 181.651,216.763 153.632,217.600 153.623 C 217.930 153.619,220.630 155.764,223.600 158.389 C 230.399 164.400,230.000 164.437,230.000 157.787 C 230.000 153.194,230.097 152.338,230.640 152.129 C 231.767 151.697,231.988 152.863,231.994 159.269 L 232.000 165.538 234.900 168.139 C 243.094 175.486,251.023 182.288,251.200 182.122 C 251.310 182.018,250.852 181.454,250.183 180.867 C 249.514 180.280,245.239 176.568,240.683 172.618 L 232.400 165.436 232.400 159.092 C 232.400 151.771,231.825 149.935,230.080 151.680 M216.446 167.744 C 215.673 168.676,216.020 227.678,216.800 227.917 C 217.284 228.065,217.304 227.998,216.900 227.570 C 216.046 226.665,216.183 168.458,217.040 168.129 C 217.393 167.994,217.840 168.135,218.034 168.442 C 218.552 169.259,218.505 226.257,217.986 227.226 C 217.748 227.671,217.730 228.000,217.943 228.000 C 218.147 228.000,218.424 227.715,218.557 227.367 C 218.999 226.216,218.834 168.810,218.386 167.974 C 217.902 167.070,217.086 166.973,216.446 167.744 M203.043 176.633 C 202.726 177.459,202.726 210.541,203.043 211.367 C 203.330 212.116,204.442 212.198,205.120 211.520 C 205.628 211.012,205.841 178.739,205.348 176.900 C 204.720 174.557,204.600 177.251,204.600 193.700 C 204.600 209.167,204.524 211.400,204.000 211.400 C 203.220 211.400,202.874 177.475,203.645 176.546 C 203.926 176.207,203.944 176.000,203.692 176.000 C 203.468 176.000,203.176 176.285,203.043 176.633 M189.884 188.250 C 189.432 188.701,189.545 200.319,190.004 200.602 C 191.699 201.650,192.025 200.570,191.910 194.270 C 191.798 188.114,191.350 186.783,189.884 188.250 M243.376 188.518 C 242.818 189.972,243.406 200.591,244.051 200.715 C 245.829 201.056,247.055 191.519,245.586 188.774 C 245.118 187.899,243.678 187.732,243.376 188.518 M191.408 189.300 C 191.971 191.567,191.423 199.786,190.700 199.924 C 189.981 200.062,189.569 189.364,190.267 188.667 C 190.767 188.167,191.184 188.399,191.408 189.300 M245.210 189.426 C 246.221 192.087,245.580 200.000,244.353 200.000 C 243.587 200.000,243.132 189.402,243.867 188.667 C 244.378 188.156,244.822 188.407,245.210 189.426 M98.431 216.236 C 96.347 217.989,96.860 220.485,99.707 222.446 C 100.744 223.160,100.663 223.018,99.300 221.730 C 97.370 219.906,96.983 217.882,98.331 216.662 C 99.125 215.944,100.000 215.784,100.000 216.358 C 100.000 216.554,100.405 216.705,100.900 216.693 C 101.395 216.681,102.160 216.814,102.600 216.989 L 103.400 217.308 102.600 216.667 C 101.812 216.035,101.816 216.025,102.800 215.973 L 103.800 215.920 102.800 215.600 C 100.935 215.003,99.678 215.186,98.431 216.236 M249.631 216.236 C 247.547 217.989,248.060 220.485,250.907 222.446 C 251.944 223.160,251.863 223.018,250.500 221.730 C 248.570 219.906,248.183 217.882,249.531 216.662 C 250.325 215.944,251.200 215.784,251.200 216.358 C 251.200 216.554,251.605 216.705,252.100 216.693 C 252.595 216.681,253.360 216.814,253.800 216.989 L 254.600 217.308 253.800 216.667 C 253.012 216.035,253.016 216.025,254.000 215.973 L 255.000 215.920 254.000 215.600 C 252.135 215.003,250.878 215.186,249.631 216.236 M108.002 215.990 C 107.483 216.319,107.497 216.437,108.115 216.888 C 109.333 217.779,108.959 227.749,107.700 227.928 C 106.669 228.074,106.466 228.800,107.456 228.800 C 109.008 228.800,110.250 217.896,108.800 217.000 C 107.727 216.337,108.740 216.018,112.300 215.898 L 116.200 215.767 112.400 215.690 C 110.310 215.647,108.331 215.782,108.002 215.990 M120.412 215.984 C 120.088 216.189,119.978 216.501,120.166 216.678 C 120.355 216.855,120.590 216.775,120.688 216.500 C 120.787 216.222,121.525 216.000,122.346 216.000 L 123.826 216.000 123.668 218.804 C 123.561 220.694,123.675 221.809,124.018 222.221 C 124.403 222.685,124.414 222.946,124.063 223.297 C 123.554 223.806,123.420 227.441,123.900 227.739 C 124.065 227.841,124.137 227.036,124.061 225.951 C 123.978 224.784,124.121 223.736,124.410 223.388 C 124.785 222.937,124.789 222.668,124.428 222.234 C 123.548 221.173,124.049 217.021,125.075 216.875 C 127.281 216.562,128.344 219.693,126.618 221.418 C 126.078 221.958,125.795 222.400,125.989 222.400 C 127.878 222.400,128.441 218.733,126.789 217.190 C 125.592 216.071,125.588 216.057,126.489 215.884 C 126.990 215.788,125.960 215.687,124.200 215.661 C 122.440 215.634,120.735 215.780,120.412 215.984 M139.396 215.977 C 142.778 216.166,143.412 216.307,143.525 216.900 C 143.668 217.650,143.010 217.863,142.600 217.200 C 142.316 216.740,138.400 216.647,138.399 217.100 C 138.399 217.265,139.344 217.400,140.499 217.400 C 142.294 217.400,142.657 217.531,142.995 218.300 C 143.589 219.654,144.000 219.386,144.000 217.643 C 144.000 215.690,143.723 215.579,139.067 215.677 L 135.400 215.755 139.396 215.977 M149.060 215.886 C 149.970 216.001,150.958 216.713,152.608 218.442 C 153.865 219.760,154.950 220.784,155.018 220.716 C 155.579 220.154,150.249 215.607,149.096 215.664 L 147.800 215.728 149.060 215.886 M159.700 215.891 C 160.991 216.026,161.927 216.800,160.800 216.800 C 160.580 216.800,160.400 217.070,160.400 217.400 C 160.400 217.856,160.604 217.796,161.247 217.153 C 162.293 216.107,161.708 215.581,159.600 215.673 L 158.200 215.734 159.700 215.891 M166.100 215.876 C 166.485 215.976,167.115 215.976,167.500 215.876 C 167.885 215.775,167.570 215.693,166.800 215.693 C 166.030 215.693,165.715 215.775,166.100 215.876 M178.000 215.894 C 183.664 216.014,184.000 216.065,184.000 216.810 C 184.000 217.645,183.416 217.873,183.000 217.200 C 182.864 216.980,181.908 216.831,180.876 216.870 L 179.000 216.940 180.796 217.098 C 181.895 217.194,182.871 217.555,183.312 218.028 C 184.384 219.178,184.702 218.972,184.431 217.300 L 184.187 215.800 178.093 215.784 L 171.999 215.768 178.000 215.894 M186.500 215.865 C 185.732 216.175,185.902 216.627,186.970 217.114 C 187.504 217.357,188.421 218.376,189.008 219.378 C 189.595 220.380,190.160 221.200,190.264 221.200 C 190.680 221.200,188.539 217.854,187.700 217.194 C 186.440 216.201,186.546 216.064,188.700 215.894 L 190.600 215.744 188.800 215.704 C 187.810 215.681,186.775 215.754,186.500 215.865 M195.600 216.006 C 195.080 216.347,195.077 216.450,195.577 216.771 C 196.052 217.077,196.068 217.344,195.671 218.271 C 195.216 219.332,195.225 219.352,195.811 218.600 C 196.173 218.137,196.341 217.421,196.210 216.900 C 195.953 215.874,198.950 215.487,199.312 216.500 C 199.410 216.775,199.645 216.855,199.834 216.678 C 200.765 215.805,196.853 215.184,195.600 216.006 M236.002 215.990 C 235.483 216.319,235.497 216.437,236.115 216.888 C 237.333 217.779,236.959 227.749,235.700 227.928 C 234.669 228.074,234.466 228.800,235.456 228.800 C 237.008 228.800,238.250 217.896,236.800 217.000 C 235.727 216.337,236.740 216.018,240.300 215.898 L 244.200 215.767 240.400 215.690 C 238.310 215.647,236.331 215.782,236.002 215.990 M258.677 215.857 C 258.242 216.291,258.353 219.200,258.805 219.200 C 259.053 219.200,259.110 218.581,258.954 217.600 L 258.698 216.000 264.720 216.000 C 270.109 216.000,270.763 216.073,270.948 216.700 C 271.108 217.244,271.136 217.222,271.072 216.600 C 270.988 215.783,259.443 215.091,258.677 215.857 M279.541 215.944 C 280.058 216.089,280.731 216.746,281.037 217.404 C 281.491 218.383,281.548 218.419,281.347 217.600 C 280.999 216.181,280.432 215.594,279.451 215.640 C 278.657 215.677,278.663 215.697,279.541 215.944 M287.999 215.900 C 287.999 216.065,290.699 216.146,293.999 216.080 C 299.929 215.961,300.000 215.970,300.000 216.829 C 300.000 217.536,299.894 217.610,299.430 217.225 C 299.116 216.964,298.081 216.807,297.130 216.876 L 295.400 217.000 295.288 222.168 C 295.226 225.010,295.316 227.476,295.488 227.649 C 295.659 227.821,295.745 225.531,295.678 222.559 L 295.556 217.154 297.478 217.277 C 299.023 217.376,299.478 217.577,299.795 218.300 C 300.012 218.795,300.327 219.200,300.495 219.200 C 300.989 219.200,300.844 216.604,300.320 216.080 C 299.785 215.545,288.000 215.372,287.999 215.900 M305.913 215.895 C 307.076 215.976,308.876 215.976,309.913 215.893 C 310.951 215.811,310.000 215.745,307.800 215.746 C 305.600 215.747,304.751 215.814,305.913 215.895 M104.006 216.700 C 104.003 217.195,103.775 217.603,103.500 217.606 C 102.965 217.613,103.942 218.382,104.500 218.394 C 104.926 218.403,104.861 217.113,104.400 216.400 C 104.086 215.915,104.011 215.972,104.006 216.700 M128.500 216.996 C 129.248 217.752,129.621 218.572,129.664 219.555 L 129.728 221.000 129.888 219.718 C 130.079 218.191,129.510 216.991,128.291 216.350 C 127.529 215.950,127.559 216.043,128.500 216.996 M147.213 216.271 C 147.235 216.834,148.400 218.185,148.400 217.648 C 148.400 217.370,148.130 216.873,147.800 216.543 C 147.470 216.213,147.206 216.091,147.213 216.271 M157.200 216.304 C 157.200 216.471,157.560 216.832,158.000 217.107 C 158.700 217.545,158.800 218.040,158.800 221.087 L 158.800 224.567 156.900 222.783 L 155.000 221.000 156.783 222.900 C 157.764 223.945,158.709 224.800,158.883 224.800 C 159.610 224.800,159.229 217.755,158.453 216.861 C 157.689 215.980,157.200 215.763,157.200 216.304 M190.587 216.840 C 190.441 217.302,190.473 217.833,190.660 218.019 C 190.847 218.204,191.019 217.826,191.043 217.178 C 191.093 215.788,190.954 215.684,190.587 216.840 M255.206 216.700 C 255.203 217.195,254.975 217.603,254.700 217.606 C 254.165 217.613,255.142 218.382,255.700 218.394 C 256.126 218.403,256.061 217.113,255.600 216.400 C 255.286 215.915,255.211 215.972,255.206 216.700 M171.646 217.500 C 171.594 218.962,172.155 219.205,172.800 218.000 C 173.125 217.393,173.682 217.183,175.114 217.130 L 177.000 217.060 175.246 216.904 C 174.281 216.819,173.300 216.940,173.066 217.174 C 172.454 217.786,172.085 217.701,171.876 216.900 C 171.775 216.515,171.672 216.785,171.646 217.500 M111.467 217.067 C 111.320 217.213,111.200 218.293,111.200 219.467 L 111.200 221.600 113.300 221.528 L 115.400 221.456 113.500 221.306 L 111.600 221.156 111.600 219.156 L 111.600 217.156 113.500 217.278 C 115.022 217.376,115.479 217.579,115.795 218.300 C 116.212 219.250,116.800 219.512,116.800 218.747 C 116.800 217.375,112.510 216.023,111.467 217.067 M239.467 217.067 C 239.320 217.213,239.200 218.293,239.200 219.467 L 239.200 221.600 241.300 221.528 L 243.400 221.456 241.500 221.306 L 239.600 221.156 239.600 219.156 L 239.600 217.156 241.500 217.278 C 243.022 217.376,243.479 217.579,243.795 218.300 C 244.212 219.250,244.800 219.512,244.800 218.747 C 244.800 217.375,240.510 216.023,239.467 217.067 M259.700 217.056 C 259.425 217.172,259.200 217.468,259.200 217.713 C 259.200 218.024,259.346 218.014,259.680 217.680 C 259.944 217.416,260.934 217.200,261.880 217.200 L 263.600 217.200 263.600 222.392 L 263.600 227.585 262.600 227.836 C 261.624 228.081,261.188 228.800,262.017 228.800 C 263.641 228.800,264.028 227.444,263.912 222.159 L 263.800 217.000 262.000 216.922 C 261.010 216.879,259.975 216.939,259.700 217.056 M265.867 217.067 C 265.048 217.885,265.655 228.000,266.523 228.000 C 266.815 228.000,266.801 227.841,266.480 227.520 C 266.158 227.198,266.000 225.408,266.000 222.098 L 266.000 217.156 267.900 217.278 C 269.422 217.376,269.879 217.579,270.195 218.300 C 270.696 219.442,271.200 219.459,271.200 218.333 C 271.200 217.857,271.089 217.578,270.952 217.714 C 270.816 217.850,270.443 217.700,270.124 217.381 C 269.540 216.797,266.370 216.563,265.867 217.067 M288.700 217.588 C 287.910 218.515,287.833 218.800,288.373 218.800 C 288.578 218.800,288.860 218.440,289.000 218.000 C 289.204 217.357,289.605 217.200,291.049 217.200 L 292.843 217.200 292.722 222.581 C 292.655 225.541,292.741 227.821,292.912 227.649 C 293.084 227.476,293.174 225.010,293.112 222.168 L 293.000 217.000 291.200 216.884 C 289.787 216.792,289.250 216.944,288.700 217.588 M304.321 222.224 L 304.443 227.574 303.421 227.830 C 302.442 228.076,301.975 228.800,302.795 228.800 C 304.488 228.800,306.052 218.025,304.500 217.061 C 304.335 216.958,304.255 219.282,304.321 222.224 M306.562 217.354 C 306.445 217.659,306.406 218.694,306.475 219.654 L 306.600 221.400 308.900 221.390 C 311.029 221.381,311.200 221.448,311.200 222.290 C 311.200 223.225,310.639 223.511,310.200 222.800 C 309.154 221.108,306.400 222.848,306.400 225.200 C 306.400 227.896,310.067 229.368,311.632 227.300 C 312.082 226.704,312.078 226.675,311.601 227.100 C 309.516 228.959,306.548 227.358,306.869 224.548 C 307.003 223.374,310.400 222.440,310.400 223.577 C 310.400 223.810,310.670 224.000,311.000 224.000 C 311.444 224.000,311.600 223.533,311.600 222.200 C 311.600 220.510,311.160 219.894,310.600 220.800 C 310.464 221.020,309.553 221.200,308.576 221.200 L 306.800 221.200 306.800 219.200 L 306.800 217.200 308.773 217.200 C 310.395 217.200,310.791 217.342,311.000 218.000 C 311.219 218.690,312.000 219.162,312.000 218.605 C 312.000 217.088,307.097 215.961,306.562 217.354 M136.154 222.400 C 136.154 225.150,136.218 226.275,136.296 224.900 C 136.374 223.525,136.374 221.275,136.296 219.900 C 136.218 218.525,136.154 219.650,136.154 222.400 M176.953 222.200 C 176.953 224.840,177.018 225.868,177.097 224.484 C 177.175 223.101,177.174 220.941,177.095 219.684 C 177.016 218.428,176.952 219.560,176.953 222.200 M167.753 222.600 C 167.753 225.240,167.818 226.268,167.897 224.884 C 167.975 223.501,167.974 221.341,167.895 220.084 C 167.816 218.828,167.752 219.960,167.753 222.600 M99.200 218.799 C 99.200 218.974,100.505 220.261,102.100 221.659 C 103.695 223.056,104.730 223.841,104.400 223.403 C 104.070 222.964,103.350 222.250,102.800 221.816 C 102.250 221.382,101.215 220.454,100.500 219.754 C 99.785 219.053,99.200 218.623,99.200 218.799 M196.614 219.435 C 196.241 220.004,196.027 220.561,196.139 220.672 C 196.250 220.783,196.629 220.318,196.981 219.637 C 197.759 218.133,197.544 218.015,196.614 219.435 M250.400 218.799 C 250.400 218.974,251.705 220.261,253.300 221.659 C 254.895 223.056,255.930 223.841,255.600 223.403 C 255.270 222.964,254.550 222.250,254.000 221.816 C 253.450 221.382,252.415 220.454,251.700 219.754 C 250.985 219.053,250.400 218.623,250.400 218.799 M149.600 222.939 C 149.600 227.126,150.156 228.800,151.547 228.800 C 152.312 228.800,152.050 228.212,151.100 227.795 C 150.188 227.395,149.415 219.613,150.286 219.593 C 150.458 219.589,152.194 221.254,154.143 223.293 L 157.686 227.000 154.343 223.200 C 149.406 217.588,149.600 217.599,149.600 222.939 M278.663 219.070 C 278.518 219.215,278.403 219.618,278.406 219.967 C 278.411 220.522,278.461 220.526,278.806 220.000 C 279.156 219.467,279.244 219.467,279.594 220.000 C 279.811 220.330,279.991 220.397,279.994 220.149 C 280.002 219.550,278.997 218.736,278.663 219.070 M194.327 220.600 C 193.766 221.832,193.477 221.850,192.652 220.700 C 192.016 219.813,192.013 219.815,192.467 220.900 C 193.067 222.331,193.827 222.295,194.600 220.800 C 194.941 220.140,195.122 219.600,195.002 219.600 C 194.881 219.600,194.578 220.050,194.327 220.600 M278.032 221.300 C 278.008 221.818,278.312 222.000,279.200 222.000 C 280.088 222.000,280.392 221.818,280.368 221.300 C 280.350 220.882,280.256 220.801,280.135 221.100 C 280.024 221.375,279.603 221.600,279.200 221.600 C 278.797 221.600,278.376 221.375,278.265 221.100 C 278.144 220.801,278.050 220.882,278.032 221.300 M128.596 222.004 C 127.800 222.884,128.001 223.571,129.648 225.600 C 130.196 226.275,130.110 225.977,129.383 224.684 C 128.346 222.840,128.332 222.738,129.015 221.984 C 129.405 221.553,129.634 221.200,129.524 221.200 C 129.414 221.200,128.997 221.562,128.596 222.004 M139.300 221.487 C 139.905 221.578,140.895 221.578,141.500 221.487 C 142.105 221.395,141.610 221.320,140.400 221.320 C 139.190 221.320,138.695 221.395,139.300 221.487 M195.014 222.235 C 194.641 222.804,194.427 223.361,194.539 223.472 C 194.650 223.583,195.029 223.118,195.381 222.437 C 196.159 220.933,195.944 220.815,195.014 222.235 M190.760 222.200 C 191.434 223.505,191.988 224.228,191.985 223.800 C 191.983 223.580,191.614 222.950,191.164 222.400 C 190.621 221.736,190.485 221.669,190.760 222.200 M111.365 222.948 C 111.249 223.249,111.210 224.464,111.277 225.648 L 111.400 227.800 113.400 227.917 C 114.776 227.998,115.650 227.835,116.200 227.395 C 116.986 226.767,116.984 226.763,116.126 227.178 C 115.646 227.410,114.431 227.600,113.426 227.600 L 111.600 227.600 111.600 225.400 L 111.600 223.200 113.180 223.200 C 114.266 223.200,114.882 223.418,115.150 223.897 C 115.365 224.280,115.672 224.461,115.834 224.299 C 115.996 224.137,115.712 223.644,115.203 223.203 C 114.137 222.278,111.684 222.115,111.365 222.948 M138.667 222.667 C 138.086 223.247,138.477 223.400,140.197 223.263 C 141.567 223.154,142.053 223.272,142.240 223.760 C 142.491 224.413,143.200 224.654,143.200 224.086 C 143.200 223.121,139.402 221.932,138.667 222.667 M239.365 222.948 C 239.249 223.249,239.210 224.464,239.277 225.648 L 239.400 227.800 241.400 227.917 C 242.776 227.998,243.650 227.835,244.200 227.395 C 244.986 226.767,244.984 226.763,244.126 227.178 C 243.646 227.410,242.431 227.600,241.426 227.600 L 239.600 227.600 239.600 225.400 L 239.600 223.200 241.180 223.200 C 242.266 223.200,242.882 223.418,243.150 223.897 C 243.365 224.280,243.672 224.461,243.834 224.299 C 243.996 224.137,243.712 223.644,243.203 223.203 C 242.137 222.278,239.684 222.115,239.365 222.948 M101.849 224.000 C 102.316 224.550,102.797 225.270,102.918 225.600 C 103.105 226.114,103.141 226.109,103.168 225.570 C 103.186 225.223,102.705 224.503,102.100 223.970 L 101.000 223.000 101.849 224.000 M253.049 224.000 C 253.516 224.550,253.997 225.270,254.118 225.600 C 254.305 226.114,254.341 226.109,254.368 225.570 C 254.386 225.223,253.905 224.503,253.300 223.970 L 252.200 223.000 253.049 224.000 M277.280 223.680 C 277.016 223.944,276.811 224.439,276.825 224.780 C 276.841 225.160,276.991 225.052,277.212 224.500 C 277.504 223.774,277.888 223.600,279.200 223.600 C 280.512 223.600,280.896 223.774,281.188 224.500 C 281.409 225.052,281.559 225.160,281.575 224.780 C 281.616 223.780,280.744 223.200,279.200 223.200 C 278.408 223.200,277.544 223.416,277.280 223.680 M104.893 225.600 C 104.893 226.370,104.975 226.685,105.076 226.300 C 105.176 225.915,105.176 225.285,105.076 224.900 C 104.975 224.515,104.893 224.830,104.893 225.600 M192.093 225.600 C 192.093 226.370,192.175 226.685,192.276 226.300 C 192.376 225.915,192.376 225.285,192.276 224.900 C 192.175 224.515,192.093 224.830,192.093 225.600 M256.093 225.600 C 256.093 226.370,256.175 226.685,256.276 226.300 C 256.376 225.915,256.376 225.285,256.276 224.900 C 256.175 224.515,256.093 224.830,256.093 225.600 M96.800 226.524 C 96.800 227.031,97.053 227.793,97.362 228.216 C 97.888 228.935,97.911 228.914,97.716 227.892 C 97.497 226.747,98.146 226.361,98.545 227.400 C 98.671 227.730,98.994 228.000,99.262 228.000 C 99.530 228.000,99.232 227.460,98.600 226.800 C 97.220 225.359,96.800 225.295,96.800 226.524 M143.481 226.613 C 142.718 227.661,139.111 228.093,138.663 227.190 C 138.552 226.965,138.505 227.010,138.561 227.290 C 138.699 227.985,141.921 228.178,143.076 227.559 C 144.117 227.002,144.615 227.264,144.262 228.183 C 144.073 228.676,143.197 228.817,139.913 228.884 L 135.800 228.967 139.741 229.099 C 144.200 229.247,144.800 228.992,144.800 226.951 C 144.800 225.354,144.461 225.267,143.481 226.613 M248.000 226.524 C 248.000 227.031,248.253 227.793,248.562 228.216 C 249.088 228.935,249.111 228.914,248.916 227.892 C 248.697 226.747,249.346 226.361,249.745 227.400 C 249.871 227.730,250.194 228.000,250.462 228.000 C 250.730 228.000,250.432 227.460,249.800 226.800 C 248.420 225.359,248.000 225.295,248.000 226.524 M276.249 226.215 C 276.112 226.573,276.015 227.166,276.034 227.533 C 276.053 227.900,276.227 227.669,276.421 227.020 C 276.798 225.758,276.665 225.133,276.249 226.215 M281.844 226.600 C 282.173 228.071,282.402 228.390,282.394 227.367 C 282.391 226.945,282.205 226.330,281.982 226.000 C 281.685 225.562,281.648 225.724,281.844 226.600 M148.046 226.676 C 148.021 227.158,147.820 227.664,147.600 227.800 C 147.380 227.936,147.200 228.257,147.200 228.513 C 147.200 228.769,147.483 228.575,147.828 228.082 C 148.173 227.589,148.374 226.873,148.274 226.493 C 148.137 225.967,148.082 226.011,148.046 226.676 M102.484 227.440 C 102.201 227.748,101.515 228.000,100.961 228.000 C 100.391 228.000,100.060 228.174,100.200 228.400 C 100.336 228.620,100.032 228.815,99.524 228.834 C 98.681 228.866,98.696 228.898,99.700 229.200 C 100.305 229.382,101.295 229.382,101.900 229.200 C 102.734 228.949,102.806 228.858,102.200 228.825 C 101.460 228.785,101.474 228.725,102.394 228.018 C 102.941 227.598,103.301 227.171,103.194 227.068 C 103.087 226.965,102.768 227.133,102.484 227.440 M131.170 227.700 L 132.139 228.800 131.170 228.846 C 130.424 228.882,130.371 228.937,130.942 229.084 C 132.267 229.425,132.466 228.598,131.305 227.575 L 130.200 226.600 131.170 227.700 M253.684 227.440 C 253.401 227.748,252.715 228.000,252.161 228.000 C 251.591 228.000,251.260 228.174,251.400 228.400 C 251.536 228.620,251.232 228.815,250.724 228.834 C 249.881 228.866,249.896 228.898,250.900 229.200 C 251.505 229.382,252.495 229.382,253.100 229.200 C 253.934 228.949,254.006 228.858,253.400 228.825 C 252.660 228.785,252.674 228.725,253.594 228.018 C 254.141 227.598,254.501 227.171,254.394 227.068 C 254.287 226.965,253.968 227.133,253.684 227.440 M158.467 228.249 C 159.554 229.336,160.434 229.255,160.354 228.076 C 160.312 227.467,160.289 227.469,160.124 228.100 C 159.882 229.026,159.323 228.986,158.707 228.000 C 158.432 227.560,158.030 227.200,157.813 227.200 C 157.596 227.200,157.890 227.672,158.467 228.249 M312.711 227.896 C 312.496 228.719,312.218 228.780,308.141 228.901 L 303.800 229.030 308.051 229.115 C 312.390 229.202,313.546 228.838,313.108 227.524 C 313.016 227.247,312.837 227.414,312.711 227.896 M134.000 228.400 C 134.000 228.620,134.270 228.800,134.600 228.800 C 134.930 228.800,135.200 228.620,135.200 228.400 C 135.200 228.180,134.930 228.000,134.600 228.000 C 134.270 228.000,134.000 228.180,134.000 228.400 M174.800 228.400 C 174.800 228.620,175.070 228.800,175.400 228.800 C 175.730 228.800,176.000 228.620,176.000 228.400 C 176.000 228.180,175.730 228.000,175.400 228.000 C 175.070 228.000,174.800 228.180,174.800 228.400 M296.400 228.400 C 296.400 228.620,296.670 228.800,297.000 228.800 C 297.330 228.800,297.600 228.620,297.600 228.400 C 297.600 228.180,297.330 228.000,297.000 228.000 C 296.670 228.000,296.400 228.180,296.400 228.400 M110.700 229.095 C 111.855 229.176,113.745 229.176,114.900 229.095 C 116.055 229.014,115.110 228.948,112.800 228.948 C 110.490 228.948,109.545 229.014,110.700 229.095 M121.900 229.082 C 122.395 229.178,123.205 229.178,123.700 229.082 C 124.195 228.987,123.790 228.909,122.800 228.909 C 121.810 228.909,121.405 228.987,121.900 229.082 M148.500 229.076 C 148.885 229.176,149.515 229.176,149.900 229.076 C 150.285 228.975,149.970 228.893,149.200 228.893 C 148.430 228.893,148.115 228.975,148.500 229.076 M166.100 229.076 C 166.485 229.176,167.115 229.176,167.500 229.076 C 167.885 228.975,167.570 228.893,166.800 228.893 C 166.030 228.893,165.715 228.975,166.100 229.076 M177.100 229.082 C 177.595 229.178,178.405 229.178,178.900 229.082 C 179.395 228.987,178.990 228.909,178.000 228.909 C 177.010 228.909,176.605 228.987,177.100 229.082 M192.300 229.082 C 192.795 229.178,193.605 229.178,194.100 229.082 C 194.595 228.987,194.190 228.909,193.200 228.909 C 192.210 228.909,191.805 228.987,192.300 229.082 M238.700 229.095 C 239.855 229.176,241.745 229.176,242.900 229.095 C 244.055 229.014,243.110 228.948,240.800 228.948 C 238.490 228.948,237.545 229.014,238.700 229.095 M263.900 229.082 C 264.395 229.178,265.205 229.178,265.700 229.082 C 266.195 228.987,265.790 228.909,264.800 228.909 C 263.810 228.909,263.405 228.987,263.900 229.082 M274.500 229.076 C 274.885 229.176,275.515 229.176,275.900 229.076 C 276.285 228.975,275.970 228.893,275.200 228.893 C 274.430 228.893,274.115 228.975,274.500 229.076 M283.105 229.083 C 283.602 229.179,284.322 229.175,284.705 229.075 C 285.087 228.975,284.680 228.896,283.800 228.901 C 282.920 228.905,282.607 228.987,283.105 229.083 M293.500 229.082 C 293.995 229.178,294.805 229.178,295.300 229.082 C 295.795 228.987,295.390 228.909,294.400 228.909 C 293.410 228.909,293.005 228.987,293.500 229.082 M124.569 235.337 C 124.455 235.633,124.416 237.194,124.481 238.805 C 124.606 241.892,125.274 242.909,125.972 241.074 C 126.179 240.530,126.544 239.989,126.784 239.872 C 127.032 239.751,127.000 239.701,126.710 239.756 C 126.430 239.809,126.022 240.245,125.805 240.726 C 125.090 242.309,124.800 241.644,124.800 238.422 L 124.800 235.244 126.700 235.094 L 128.600 234.944 126.687 234.872 C 125.401 234.824,124.707 234.976,124.569 235.337 M133.867 235.067 C 133.720 235.213,133.600 236.724,133.600 238.424 C 133.600 241.932,133.697 242.041,136.733 241.935 L 138.600 241.870 136.400 241.635 L 134.200 241.400 134.083 238.300 L 133.966 235.200 136.183 235.200 C 138.666 235.200,139.227 235.883,136.903 236.076 C 135.815 236.166,135.390 236.393,135.344 236.908 C 135.300 237.405,135.338 237.435,135.470 237.008 C 135.586 236.633,136.146 236.398,136.929 236.394 C 138.447 236.387,139.408 235.860,139.028 235.245 C 138.735 234.771,134.315 234.618,133.867 235.067 M145.449 235.076 C 145.968 235.178,146.574 235.856,147.011 236.825 C 147.404 237.696,147.800 238.334,147.890 238.243 C 148.395 237.738,146.318 234.804,145.492 234.854 C 144.625 234.907,144.624 234.914,145.449 235.076 M152.581 235.304 C 152.461 235.618,152.416 237.208,152.481 238.837 L 152.600 241.800 154.595 241.800 C 156.176 241.800,156.617 241.655,156.724 241.100 C 156.814 240.632,156.617 240.410,156.129 240.432 C 155.709 240.450,155.612 240.549,155.900 240.665 C 156.991 241.105,156.304 241.600,154.600 241.600 L 152.800 241.600 152.800 238.400 C 152.800 234.649,153.507 234.062,153.681 237.668 C 153.766 239.431,153.971 240.193,154.400 240.333 C 154.881 240.491,154.905 240.415,154.524 239.953 C 154.262 239.635,153.992 238.405,153.924 237.219 C 153.804 235.133,153.056 234.067,152.581 235.304 M166.700 235.089 C 167.415 235.178,168.585 235.178,169.300 235.089 C 170.015 235.001,169.430 234.928,168.000 234.928 C 166.570 234.928,165.985 235.001,166.700 235.089 M176.969 235.157 C 178.932 235.461,179.463 236.461,177.579 236.306 C 175.677 236.150,175.696 237.029,177.616 238.008 C 178.533 238.476,179.179 238.689,179.050 238.482 C 178.922 238.274,178.273 237.879,177.609 237.604 C 175.958 236.920,176.079 236.303,177.800 236.626 C 179.022 236.856,179.200 236.787,179.200 236.087 C 179.200 235.150,178.433 234.778,176.667 234.857 C 175.489 234.910,175.510 234.931,176.969 235.157 M185.100 235.091 C 187.542 235.233,188.494 235.817,186.700 236.072 C 185.872 236.190,185.798 236.415,185.770 238.902 L 185.741 241.603 185.888 239.027 C 186.019 236.729,186.131 236.437,186.918 236.326 C 189.098 236.015,187.809 235.000,185.200 234.973 L 182.600 234.945 185.100 235.091 M193.300 235.065 C 193.025 235.176,192.800 235.454,192.800 235.682 C 192.800 235.935,193.033 235.904,193.395 235.604 C 193.722 235.333,194.271 235.219,194.616 235.351 C 194.976 235.489,195.138 235.423,194.997 235.195 C 194.739 234.778,194.128 234.731,193.300 235.065 M200.200 235.200 C 199.831 235.798,200.345 236.400,201.224 236.400 C 201.912 236.400,202.000 236.693,202.000 238.976 C 202.000 241.647,202.418 242.415,203.418 241.585 C 203.805 241.264,204.000 240.325,204.000 238.779 C 204.000 236.897,204.133 236.424,204.700 236.289 C 205.233 236.161,205.209 236.131,204.600 236.161 C 203.909 236.195,203.773 236.551,203.600 238.769 C 203.319 242.373,202.474 242.478,202.319 238.927 C 202.211 236.446,202.119 236.188,201.300 236.072 C 199.437 235.808,200.501 235.231,203.100 235.097 L 205.800 234.957 203.124 234.878 C 201.652 234.835,200.336 234.980,200.200 235.200 M209.067 235.067 C 208.920 235.213,208.800 236.724,208.800 238.424 C 208.800 241.932,208.897 242.041,211.933 241.935 L 213.800 241.870 211.600 241.635 L 209.400 241.400 209.283 238.300 L 209.166 235.200 211.383 235.200 C 213.866 235.200,214.427 235.883,212.103 236.076 C 211.015 236.166,210.590 236.393,210.544 236.908 C 210.500 237.405,210.538 237.435,210.670 237.008 C 210.786 236.633,211.346 236.398,212.129 236.394 C 213.647 236.387,214.608 235.860,214.228 235.245 C 213.935 234.771,209.515 234.618,209.067 235.067 M225.300 235.065 C 225.025 235.176,224.800 235.454,224.800 235.682 C 224.800 235.935,225.033 235.904,225.395 235.604 C 225.722 235.333,226.271 235.219,226.616 235.351 C 226.976 235.489,227.138 235.423,226.997 235.195 C 226.739 234.778,226.128 234.731,225.300 235.065 M233.544 235.632 L 232.600 236.464 233.589 235.832 C 234.757 235.085,237.238 234.998,237.920 235.680 C 238.241 236.001,238.400 236.015,238.400 235.723 C 238.400 234.541,234.858 234.475,233.544 235.632 M242.667 235.067 C 242.520 235.213,242.400 236.724,242.400 238.424 C 242.400 241.932,242.497 242.041,245.533 241.935 L 247.400 241.870 245.200 241.635 L 243.000 241.400 242.883 238.300 L 242.766 235.200 244.983 235.200 C 247.466 235.200,248.027 235.883,245.703 236.076 C 244.615 236.166,244.190 236.393,244.144 236.908 C 244.100 237.405,244.138 237.435,244.270 237.008 C 244.386 236.633,244.946 236.398,245.729 236.394 C 247.247 236.387,248.208 235.860,247.828 235.245 C 247.535 234.771,243.115 234.618,242.667 235.067 M251.467 235.067 C 250.811 235.722,251.185 241.509,251.900 241.781 C 252.461 241.995,252.501 241.948,252.100 241.544 C 251.431 240.870,251.408 235.200,252.074 235.200 C 252.335 235.200,253.005 235.605,253.562 236.100 C 254.409 236.852,254.479 236.869,253.988 236.200 C 253.001 234.857,252.087 234.446,251.467 235.067 M262.525 235.500 C 262.106 235.885,262.011 236.030,262.316 235.822 C 262.620 235.615,263.619 235.322,264.535 235.172 L 266.200 234.900 264.744 234.850 C 263.857 234.820,262.991 235.073,262.525 235.500 M270.602 235.197 C 270.467 235.415,270.555 235.910,270.797 236.297 C 271.179 236.906,271.205 236.880,270.992 236.100 C 270.700 235.031,271.394 234.890,271.973 235.900 C 273.096 237.864,273.147 237.874,274.400 236.400 C 275.391 235.234,275.657 235.100,275.989 235.600 C 276.230 235.963,276.390 236.012,276.394 235.724 C 276.411 234.358,274.724 234.770,274.027 236.301 L 273.545 237.359 272.543 236.079 C 271.500 234.746,271.016 234.526,270.602 235.197 M129.469 236.250 C 130.115 237.235,130.116 237.372,129.487 238.468 C 128.948 239.407,128.910 239.787,129.293 240.400 C 130.014 241.555,129.241 241.935,128.366 240.856 C 127.945 240.336,127.600 240.083,127.600 240.294 C 127.600 240.504,127.964 241.006,128.409 241.409 C 129.497 242.393,130.456 241.623,129.684 240.385 C 129.276 239.733,129.305 239.412,129.841 238.593 C 130.516 237.564,130.029 235.200,129.142 235.200 C 128.944 235.200,129.091 235.672,129.469 236.250 M165.334 238.400 C 165.334 240.050,165.405 240.725,165.491 239.900 C 165.578 239.075,165.578 237.725,165.491 236.900 C 165.405 236.075,165.334 236.750,165.334 238.400 M125.745 236.600 C 125.437 237.402,125.851 238.401,126.487 238.394 C 126.871 238.389,126.859 238.299,126.442 238.034 C 125.667 237.544,126.198 236.400,127.200 236.400 C 128.202 236.400,128.733 237.544,127.958 238.034 C 127.541 238.299,127.529 238.389,127.913 238.394 C 128.665 238.403,128.966 237.282,128.396 236.595 C 127.756 235.824,126.041 235.827,125.745 236.600 M166.978 236.435 C 166.831 236.674,166.921 237.079,167.179 237.335 C 167.536 237.689,167.586 237.639,167.390 237.125 C 167.178 236.567,167.436 236.422,168.867 236.295 L 170.600 236.140 168.924 236.070 C 168.002 236.031,167.126 236.196,166.978 236.435 M183.100 236.262 C 183.908 236.436,184.000 236.694,184.000 238.779 C 184.000 240.516,184.177 241.241,184.700 241.651 C 185.313 242.132,185.341 242.124,184.923 241.586 C 184.660 241.249,184.390 239.899,184.323 238.586 C 184.208 236.361,184.133 236.196,183.200 236.134 C 182.319 236.077,182.307 236.092,183.100 236.262 M234.427 236.971 C 233.925 237.506,233.609 238.181,233.726 238.471 C 233.876 238.848,233.946 238.817,233.968 238.362 C 234.025 237.226,235.455 236.279,236.684 236.565 C 237.509 236.757,237.644 236.718,237.200 236.418 C 236.236 235.766,235.403 235.932,234.427 236.971 M263.180 237.022 C 261.908 238.375,262.700 240.165,264.613 240.258 L 265.800 240.316 264.678 240.129 C 263.077 239.863,262.413 238.291,263.427 237.170 C 263.997 236.541,264.478 236.393,265.391 236.568 C 266.265 236.735,266.434 236.690,266.000 236.406 C 265.017 235.761,264.196 235.940,263.180 237.022 M275.000 237.600 C 274.659 238.260,274.469 238.800,274.579 238.800 C 274.689 238.800,275.059 238.260,275.400 237.600 C 275.741 236.940,275.931 236.400,275.821 236.400 C 275.711 236.400,275.341 236.940,275.000 237.600 M232.232 237.461 C 231.845 238.469,232.756 240.754,233.732 241.225 C 234.510 241.601,234.529 241.586,233.916 241.089 C 233.008 240.354,232.321 238.479,232.617 237.547 C 232.910 236.624,232.581 236.551,232.232 237.461 M260.998 237.608 C 260.689 238.579,261.945 241.294,262.800 241.503 C 263.262 241.616,263.242 241.522,262.716 241.093 C 261.808 240.353,261.121 238.478,261.417 237.547 C 261.547 237.136,261.564 236.800,261.454 236.800 C 261.344 236.800,261.139 237.163,260.998 237.608 M143.600 237.284 C 143.600 237.404,143.328 238.154,142.995 238.951 C 142.662 239.748,142.479 240.400,142.589 240.400 C 142.906 240.400,144.033 237.500,143.805 237.272 C 143.692 237.159,143.600 237.165,143.600 237.284 M145.075 237.458 C 144.459 238.075,144.816 239.200,145.628 239.200 C 146.250 239.200,146.424 238.984,146.328 238.331 C 146.195 237.429,145.552 236.981,145.075 237.458 M271.655 238.100 C 271.921 238.595,272.269 239.540,272.429 240.200 C 272.665 241.181,272.726 241.232,272.759 240.480 C 272.799 239.591,271.790 237.200,271.376 237.200 C 271.264 237.200,271.389 237.605,271.655 238.100 M169.600 238.176 C 169.600 238.555,169.246 238.802,168.700 238.806 C 168.205 238.809,167.542 238.976,167.226 239.176 C 166.306 239.758,167.455 240.800,169.016 240.800 C 169.740 240.800,170.425 240.984,170.537 241.210 C 170.649 241.436,170.694 241.390,170.639 241.110 C 170.583 240.830,169.871 240.510,169.055 240.400 C 167.212 240.151,166.966 239.442,168.666 239.277 C 169.918 239.156,170.722 238.246,169.983 237.789 C 169.772 237.659,169.600 237.833,169.600 238.176 M175.144 238.376 C 175.664 238.829,176.279 239.200,176.511 239.200 C 177.003 239.200,176.979 239.180,175.400 238.255 L 174.200 237.553 175.144 238.376 M191.050 239.591 C 190.147 241.847,190.287 242.183,191.237 240.042 C 191.666 239.075,191.945 238.212,191.858 238.125 C 191.771 238.038,191.408 238.698,191.050 239.591 M193.206 238.500 C 193.202 238.935,193.502 239.200,194.000 239.200 C 194.498 239.200,194.798 238.935,194.794 238.500 C 194.789 237.901,194.731 237.886,194.394 238.400 C 194.044 238.933,193.956 238.933,193.606 238.400 C 193.269 237.886,193.211 237.901,193.206 238.500 M223.050 239.591 C 222.147 241.847,222.287 242.183,223.237 240.042 C 223.666 239.075,223.945 238.212,223.858 238.125 C 223.771 238.038,223.408 238.698,223.050 239.591 M225.206 238.500 C 225.202 238.935,225.502 239.200,226.000 239.200 C 226.498 239.200,226.798 238.935,226.794 238.500 C 226.789 237.901,226.731 237.886,226.394 238.400 C 226.044 238.933,225.956 238.933,225.606 238.400 C 225.269 237.886,225.211 237.901,225.206 238.500 M237.475 238.258 C 237.324 238.410,237.200 238.798,237.200 239.123 C 237.200 239.447,236.885 239.967,236.500 240.278 C 235.868 240.789,235.888 240.802,236.700 240.408 C 237.195 240.168,237.600 239.618,237.600 239.186 C 237.600 238.754,237.780 238.400,238.000 238.400 C 238.571 238.400,238.495 240.533,237.900 241.201 C 237.473 241.680,237.505 241.682,238.120 241.215 C 238.597 240.853,238.800 240.261,238.720 239.465 C 238.602 238.283,238.017 237.716,237.475 238.258 M252.867 239.700 L 252.934 241.400 253.096 239.829 L 253.257 238.258 254.261 239.429 L 255.266 240.600 254.406 239.300 C 253.245 237.546,252.787 237.665,252.867 239.700 M136.800 238.753 C 134.672 239.129,134.813 240.552,136.995 240.730 C 137.872 240.801,138.741 241.071,138.925 241.330 C 139.156 241.653,139.210 241.612,139.099 241.200 C 138.996 240.816,138.336 240.556,137.269 240.477 C 135.120 240.319,134.885 239.200,137.000 239.200 C 137.770 239.200,138.400 239.020,138.400 238.800 C 138.400 238.580,138.355 238.424,138.300 238.453 C 138.245 238.482,137.570 238.617,136.800 238.753 M212.000 238.753 C 209.872 239.129,210.013 240.552,212.195 240.730 C 213.072 240.801,213.941 241.071,214.125 241.330 C 214.356 241.653,214.410 241.612,214.299 241.200 C 214.196 240.816,213.536 240.556,212.469 240.477 C 210.320 240.319,210.085 239.200,212.200 239.200 C 212.970 239.200,213.600 239.020,213.600 238.800 C 213.600 238.580,213.555 238.424,213.500 238.453 C 213.445 238.482,212.770 238.617,212.000 238.753 M245.600 238.753 C 243.472 239.129,243.613 240.552,245.795 240.730 C 246.672 240.801,247.541 241.071,247.725 241.330 C 247.956 241.653,248.010 241.612,247.899 241.200 C 247.796 240.816,247.136 240.556,246.069 240.477 C 243.920 240.319,243.685 239.200,245.800 239.200 C 246.570 239.200,247.200 239.020,247.200 238.800 C 247.200 238.580,247.155 238.424,247.100 238.453 C 247.045 238.482,246.370 238.617,245.600 238.753 M148.220 239.400 C 148.820 241.174,148.876 241.600,148.509 241.600 C 148.297 241.600,147.798 241.240,147.400 240.800 C 146.395 239.690,144.741 239.786,143.579 241.022 C 142.934 241.709,142.835 241.961,143.278 241.791 C 143.641 241.652,144.036 241.282,144.157 240.969 C 144.480 240.126,146.516 240.276,147.307 241.200 C 148.679 242.802,149.708 241.640,148.605 239.733 C 148.244 239.110,148.071 238.960,148.220 239.400 M177.200 239.645 C 177.200 239.934,176.722 239.999,175.831 239.832 C 175.078 239.691,174.358 239.745,174.230 239.952 C 173.911 240.468,174.387 241.600,174.923 241.600 C 175.215 241.600,175.201 241.441,174.880 241.120 C 174.020 240.260,174.370 239.986,176.000 240.246 C 177.316 240.457,177.600 240.387,177.600 239.851 C 177.600 239.493,177.510 239.200,177.400 239.200 C 177.290 239.200,177.200 239.400,177.200 239.645 M274.000 240.120 C 274.000 240.626,273.775 241.267,273.500 241.544 C 273.099 241.948,273.139 241.995,273.700 241.781 C 274.323 241.544,274.777 239.200,274.200 239.200 C 274.090 239.200,274.000 239.614,274.000 240.120 M192.368 240.700 C 191.918 241.296,191.922 241.325,192.399 240.900 C 192.708 240.625,193.428 240.400,194.000 240.400 C 194.572 240.400,195.292 240.625,195.601 240.900 C 196.078 241.325,196.082 241.296,195.632 240.700 C 195.340 240.315,194.606 240.000,194.000 240.000 C 193.394 240.000,192.660 240.315,192.368 240.700 M224.368 240.700 C 223.918 241.296,223.922 241.325,224.399 240.900 C 224.708 240.625,225.428 240.400,226.000 240.400 C 226.572 240.400,227.292 240.625,227.601 240.900 C 228.078 241.325,228.082 241.296,227.632 240.700 C 227.340 240.315,226.606 240.000,226.000 240.000 C 225.394 240.000,224.660 240.315,224.368 240.700 M266.180 241.169 C 265.971 241.372,265.260 241.615,264.600 241.709 L 263.400 241.880 264.624 241.940 C 265.296 241.973,266.196 241.736,266.624 241.413 C 267.051 241.090,267.211 240.820,266.980 240.813 C 266.749 240.806,266.389 240.966,266.180 241.169 M166.900 241.887 C 167.505 241.978,168.495 241.978,169.100 241.887 C 169.705 241.795,169.210 241.720,168.000 241.720 C 166.790 241.720,166.295 241.795,166.900 241.887 M235.300 241.876 C 235.685 241.976,236.315 241.976,236.700 241.876 C 237.085 241.775,236.770 241.693,236.000 241.693 C 235.230 241.693,234.915 241.775,235.300 241.876 " stroke="none" fill="#a1bac1" fill-rule="evenodd"></path><path id="path3" d="M231.762 159.000 C 231.762 162.520,231.824 163.906,231.898 162.081 C 231.972 160.256,231.972 157.376,231.897 155.681 C 231.822 153.986,231.761 155.480,231.762 159.000 M218.190 197.800 C 218.190 213.860,218.239 220.372,218.300 212.271 C 218.360 204.169,218.360 191.029,218.300 183.071 C 218.239 175.112,218.190 181.740,218.190 197.800 M231.787 191.800 C 231.787 204.560,231.838 209.838,231.900 203.529 C 231.962 197.219,231.962 186.779,231.900 180.329 C 231.838 173.878,231.787 179.040,231.787 191.800 M245.351 194.400 C 245.351 196.930,245.416 197.965,245.496 196.700 C 245.575 195.435,245.575 193.365,245.496 192.100 C 245.416 190.835,245.351 191.870,245.351 194.400 M116.200 217.038 C 116.200 217.567,116.335 218.000,116.500 218.000 C 116.665 218.000,116.800 217.651,116.800 217.224 C 116.800 216.797,116.665 216.364,116.500 216.262 C 116.335 216.160,116.200 216.509,116.200 217.038 M244.200 217.038 C 244.200 217.567,244.335 218.000,244.500 218.000 C 244.665 218.000,244.800 217.651,244.800 217.224 C 244.800 216.797,244.665 216.364,244.500 216.262 C 244.335 216.160,244.200 216.509,244.200 217.038 M109.000 222.400 C 109.000 225.438,109.135 227.840,109.300 227.738 C 109.465 227.636,109.600 225.234,109.600 222.400 C 109.600 219.566,109.465 217.164,109.300 217.062 C 109.135 216.960,109.000 219.362,109.000 222.400 M237.000 222.400 C 237.000 225.438,237.135 227.840,237.300 227.738 C 237.465 227.636,237.600 225.234,237.600 222.400 C 237.600 219.566,237.465 217.164,237.300 217.062 C 237.135 216.960,237.000 219.362,237.000 222.400 M293.198 221.919 L 293.396 227.000 293.511 222.233 C 293.575 219.612,293.486 217.325,293.313 217.152 C 293.141 216.979,293.089 219.124,293.198 221.919 M148.555 222.200 C 148.556 225.060,148.620 226.178,148.697 224.683 C 148.774 223.189,148.774 220.849,148.696 219.483 C 148.618 218.118,148.555 219.340,148.555 222.200 M160.157 222.400 C 160.157 225.370,160.220 226.585,160.297 225.100 C 160.374 223.615,160.374 221.185,160.297 219.700 C 160.220 218.215,160.157 219.430,160.157 222.400 M165.757 222.400 C 165.757 225.370,165.820 226.585,165.897 225.100 C 165.974 223.615,165.974 221.185,165.897 219.700 C 165.820 218.215,165.757 219.430,165.757 222.400 M178.955 222.200 C 178.956 225.060,179.020 226.178,179.097 224.683 C 179.174 223.189,179.174 220.849,179.096 219.483 C 179.018 218.118,178.955 219.340,178.955 222.200 M138.114 219.400 C 138.117 220.500,138.195 220.903,138.287 220.295 C 138.379 219.686,138.377 218.786,138.282 218.295 C 138.187 217.803,138.111 218.300,138.114 219.400 M157.688 224.213 C 158.286 224.843,158.847 225.277,158.935 225.179 C 159.023 225.080,158.533 224.565,157.847 224.034 L 156.600 223.069 157.688 224.213 M138.109 225.200 C 138.109 226.190,138.187 226.595,138.282 226.100 C 138.378 225.605,138.378 224.795,138.282 224.300 C 138.187 223.805,138.109 224.210,138.109 225.200 M194.109 225.600 C 194.109 226.590,194.187 226.995,194.282 226.500 C 194.378 226.005,194.378 225.195,194.282 224.700 C 194.187 224.205,194.109 224.610,194.109 225.600 M257.000 238.400 C 257.000 240.118,257.135 241.440,257.300 241.338 C 257.465 241.236,257.600 239.914,257.600 238.400 C 257.600 236.886,257.465 235.564,257.300 235.462 C 257.135 235.360,257.000 236.682,257.000 238.400 M256.093 236.800 C 256.093 237.570,256.175 237.885,256.276 237.500 C 256.376 237.115,256.376 236.485,256.276 236.100 C 256.175 235.715,256.093 236.030,256.093 236.800 M184.395 238.718 L 184.590 241.400 184.717 239.042 C 184.786 237.745,184.699 236.538,184.522 236.360 C 184.345 236.182,184.288 237.243,184.395 238.718 M203.365 236.548 C 203.249 236.849,203.213 238.064,203.284 239.248 L 203.413 241.400 203.607 238.699 C 203.801 235.981,203.752 235.539,203.365 236.548 M136.708 237.890 C 137.521 237.991,137.913 238.216,137.746 238.488 C 137.583 238.751,137.662 238.809,137.945 238.634 C 138.737 238.144,138.021 237.597,136.676 237.664 L 135.400 237.728 136.708 237.890 M211.908 237.890 C 212.721 237.991,213.113 238.216,212.946 238.488 C 212.783 238.751,212.862 238.809,213.145 238.634 C 213.937 238.144,213.221 237.597,211.876 237.664 L 210.600 237.728 211.908 237.890 M245.508 237.890 C 246.321 237.991,246.713 238.216,246.546 238.488 C 246.383 238.751,246.462 238.809,246.745 238.634 C 247.537 238.144,246.821 237.597,245.476 237.664 L 244.200 237.728 245.508 237.890 " stroke="none" fill="#8494a4" fill-rule="evenodd"></path><path id="path4" d="M98.162 216.893 C 97.633 217.513,97.602 217.630,98.061 217.276 C 98.493 216.943,98.771 216.912,98.862 217.187 C 98.940 217.419,99.229 217.246,99.505 216.804 C 100.229 215.644,99.168 215.714,98.162 216.893 M123.235 219.082 C 123.190 220.786,123.240 222.094,123.345 221.988 C 123.615 221.718,123.779 216.446,123.525 216.192 C 123.411 216.078,123.280 217.378,123.235 219.082 M249.362 216.893 C 248.833 217.513,248.802 217.630,249.261 217.276 C 249.693 216.943,249.971 216.912,250.062 217.187 C 250.140 217.419,250.429 217.246,250.705 216.804 C 251.429 215.644,250.368 215.714,249.362 216.893 M121.757 222.400 C 121.757 225.370,121.820 226.585,121.897 225.100 C 121.974 223.615,121.974 221.185,121.897 219.700 C 121.820 218.215,121.757 219.430,121.757 222.400 M136.554 222.400 C 136.554 225.150,136.618 226.275,136.696 224.900 C 136.774 223.525,136.774 221.275,136.696 219.900 C 136.618 218.525,136.554 219.650,136.554 222.400 M294.953 222.200 C 294.953 224.840,295.018 225.868,295.097 224.484 C 295.175 223.101,295.174 220.941,295.095 219.684 C 295.016 218.428,294.952 219.560,294.953 222.200 M277.760 218.464 C 277.628 218.678,277.628 218.961,277.760 219.093 C 277.892 219.225,278.000 219.128,278.000 218.877 C 278.000 218.552,278.296 218.532,279.023 218.809 C 279.585 219.023,279.948 219.040,279.829 218.847 C 279.492 218.302,278.028 218.031,277.760 218.464 M277.047 220.621 C 276.911 220.977,276.978 221.137,277.205 220.997 C 277.422 220.863,277.600 221.023,277.600 221.353 C 277.600 221.683,277.773 222.060,277.984 222.190 C 278.212 222.331,278.196 221.933,277.945 221.214 C 277.460 219.823,277.375 219.767,277.047 220.621 M280.156 221.078 C 280.182 221.852,280.345 222.213,280.567 221.991 C 280.790 221.770,280.772 221.267,280.523 220.713 C 280.140 219.863,280.114 219.888,280.156 221.078 M138.483 221.900 C 138.960 222.475,141.044 222.576,141.375 222.040 C 141.497 221.842,140.803 221.617,139.833 221.540 C 138.455 221.430,138.159 221.509,138.483 221.900 M111.478 222.140 C 111.315 222.565,111.607 222.618,112.852 222.391 C 115.032 221.992,115.259 221.600,113.309 221.600 C 112.316 221.600,111.605 221.809,111.478 222.140 M239.478 222.140 C 239.315 222.565,239.607 222.618,240.852 222.391 C 243.032 221.992,243.259 221.600,241.309 221.600 C 240.316 221.600,239.605 221.809,239.478 222.140 M307.500 222.088 C 308.147 222.400,308.653 222.400,309.300 222.088 C 310.090 221.707,309.980 221.654,308.400 221.654 C 306.820 221.654,306.710 221.707,307.500 222.088 M123.449 223.015 C 123.312 223.373,123.226 224.506,123.259 225.533 C 123.316 227.360,123.323 227.349,123.590 225.000 C 123.880 222.437,123.848 221.977,123.449 223.015 M192.493 225.600 C 192.493 226.370,192.575 226.685,192.676 226.300 C 192.776 225.915,192.776 225.285,192.676 224.900 C 192.575 224.515,192.493 224.830,192.493 225.600 M275.455 225.400 C 275.357 225.657,275.521 225.867,275.821 225.867 C 276.120 225.867,276.446 225.657,276.545 225.400 C 276.643 225.143,276.479 224.933,276.179 224.933 C 275.880 224.933,275.554 225.143,275.455 225.400 M116.813 226.800 C 116.521 227.533,116.588 228.772,116.903 228.457 C 117.108 228.252,117.189 227.751,117.084 227.342 C 116.979 226.934,116.857 226.690,116.813 226.800 M244.813 226.800 C 244.521 227.533,244.588 228.772,244.903 228.457 C 245.108 228.252,245.189 227.751,245.084 227.342 C 244.979 226.934,244.857 226.690,244.813 226.800 M312.200 227.762 C 312.200 228.291,312.335 228.640,312.500 228.538 C 312.665 228.436,312.800 228.003,312.800 227.576 C 312.800 227.149,312.665 226.800,312.500 226.800 C 312.335 226.800,312.200 227.233,312.200 227.762 M98.533 228.238 C 98.533 228.547,98.773 228.800,99.067 228.800 C 99.360 228.800,99.600 228.639,99.600 228.443 C 99.600 228.246,99.360 227.993,99.067 227.881 C 98.773 227.768,98.533 227.929,98.533 228.238 M249.733 228.238 C 249.733 228.547,249.973 228.800,250.267 228.800 C 250.560 228.800,250.800 228.639,250.800 228.443 C 250.800 228.246,250.560 227.993,250.267 227.881 C 249.973 227.768,249.733 227.929,249.733 228.238 M256.793 237.319 L 256.985 239.400 257.118 237.646 C 257.191 236.681,257.105 235.744,256.926 235.565 C 256.747 235.385,256.687 236.175,256.793 237.319 M274.827 235.768 C 274.448 236.224,274.493 236.316,275.056 236.233 C 275.441 236.176,275.826 235.921,275.912 235.665 C 276.129 235.014,275.394 235.084,274.827 235.768 M134.060 238.276 C 134.027 239.858,134.135 241.236,134.300 241.339 C 134.465 241.441,134.549 240.597,134.486 239.462 C 134.282 235.784,134.121 235.337,134.060 238.276 M209.260 238.276 C 209.227 239.858,209.335 241.236,209.500 241.339 C 209.665 241.441,209.749 240.597,209.686 239.462 C 209.482 235.784,209.321 235.337,209.260 238.276 M242.860 238.276 C 242.827 239.858,242.935 241.236,243.100 241.339 C 243.265 241.441,243.349 240.597,243.286 239.462 C 243.082 235.784,242.921 235.337,242.860 238.276 M251.660 238.276 C 251.627 239.858,251.735 241.236,251.900 241.339 C 252.065 241.441,252.149 240.597,252.086 239.462 C 251.882 235.784,251.721 235.337,251.660 238.276 M144.236 237.051 C 144.115 237.366,144.470 237.410,145.411 237.197 C 146.153 237.030,146.859 236.962,146.980 237.047 C 147.101 237.131,147.111 237.081,147.002 236.936 C 146.663 236.483,144.418 236.576,144.236 237.051 M135.333 238.288 C 135.333 238.581,135.808 238.800,136.443 238.800 C 138.055 238.800,138.229 238.114,136.663 237.931 C 135.769 237.827,135.333 237.944,135.333 238.288 M167.417 238.027 C 167.513 238.182,167.323 238.532,166.996 238.804 C 166.344 239.344,166.209 240.235,166.730 240.557 C 166.911 240.669,167.046 240.364,167.030 239.880 C 167.008 239.233,167.265 238.964,168.000 238.866 C 169.540 238.660,169.798 238.120,168.451 237.922 C 167.786 237.825,167.321 237.872,167.417 238.027 M210.533 238.288 C 210.533 238.581,211.008 238.800,211.643 238.800 C 213.255 238.800,213.429 238.114,211.863 237.931 C 210.969 237.827,210.533 237.944,210.533 238.288 M244.133 238.288 C 244.133 238.581,244.608 238.800,245.243 238.800 C 246.855 238.800,247.029 238.114,245.463 237.931 C 244.569 237.827,244.133 237.944,244.133 238.288 M126.097 238.609 C 126.260 238.784,126.230 239.123,126.031 239.363 C 125.783 239.661,126.026 239.800,126.796 239.800 C 128.047 239.800,128.006 239.439,126.678 238.748 C 126.195 238.497,125.933 238.434,126.097 238.609 M178.832 239.677 C 178.814 240.050,178.400 240.635,177.911 240.977 C 177.422 241.320,177.214 241.600,177.449 241.600 C 178.129 241.600,179.303 240.098,179.073 239.523 C 178.933 239.174,178.853 239.225,178.832 239.677 M273.552 240.313 C 273.421 241.107,273.479 241.481,273.701 241.259 C 273.903 241.057,274.001 240.467,273.919 239.946 C 273.793 239.145,273.737 239.202,273.552 240.313 M142.664 240.577 C 142.257 241.639,142.705 241.873,143.510 241.020 C 143.889 240.617,143.990 240.404,143.734 240.546 C 143.478 240.689,143.196 240.588,143.108 240.323 C 143.011 240.032,142.834 240.133,142.664 240.577 M237.169 240.100 C 236.806 241.289,236.924 241.562,237.636 241.181 C 238.576 240.678,238.644 240.331,237.734 240.681 C 237.287 240.852,237.164 240.783,237.358 240.468 C 237.517 240.211,237.547 240.000,237.424 240.000 C 237.301 240.000,237.186 240.045,237.169 240.100 M265.800 240.422 C 265.360 240.599,265.236 240.756,265.524 240.772 C 265.822 240.788,265.927 241.015,265.767 241.300 C 265.613 241.575,265.817 241.489,266.220 241.110 C 267.094 240.285,266.906 239.977,265.800 240.422 " stroke="none" fill="#7c8c9c" fill-rule="evenodd"></path></g></svg>